<svg width="67" height="12" viewBox="0 0 67 12" fill="none" xmlns="http://www.w3.org/2000/svg">
<path d="M8.18608 4.73667C9.21547 4.94719 9.98501 5.3582 10.4947 5.96971C11.0044 6.57119 11.2693 7.21277 11.2892 7.89445C11.2892 7.90447 11.2892 7.9145 11.2892 7.92452C11.2892 7.93455 11.2892 7.94457 11.2892 7.95459C11.2792 8.77662 10.9245 9.52847 10.2249 10.2101C9.53528 10.8918 8.52088 11.2327 7.18167 11.2327L0.945362 11.2477C0.745481 11.2377 0.590572 11.1926 0.480637 11.1124C0.380696 11.0322 0.325729 10.942 0.315735 10.8417C0.315735 10.8317 0.315735 10.8217 0.315735 10.8116C0.315735 10.8116 0.315735 10.8066 0.315735 10.7966C0.315735 10.6963 0.370702 10.6011 0.480637 10.5109C0.600566 10.4106 0.770466 10.3605 0.990336 10.3605L1.11026 10.2553V1.02252C0.890395 1.02252 0.715498 0.977408 0.585575 0.887186C0.465646 0.796963 0.395688 0.696716 0.375699 0.586444C0.365705 0.57642 0.360708 0.566395 0.360708 0.55637C0.360708 0.536321 0.360708 0.521284 0.360708 0.511259C0.360708 0.411012 0.405682 0.325802 0.495628 0.255629C0.595569 0.175432 0.740483 0.135333 0.930371 0.135333H7.55645C8.6558 0.135333 9.49031 0.380938 10.06 0.872148C10.6296 1.35333 10.9145 1.88965 10.9145 2.48111C10.9145 2.99237 10.6896 3.46854 10.2399 3.90963C9.79013 4.34069 9.10553 4.61637 8.18608 4.73667ZM6.67197 9.80415V5.87948C6.67197 5.68901 6.58203 5.54867 6.40213 5.45845C6.23223 5.36822 6.04235 5.32311 5.83247 5.32311C5.62259 5.32311 5.43271 5.37324 5.26281 5.47348C5.09291 5.5637 5.00796 5.69904 5.00796 5.87948C5.00796 5.91958 5.02295 5.95467 5.05293 5.98474C5.08291 6.01482 5.11789 6.04489 5.15787 6.07497C5.15787 6.07497 5.15787 6.07998 5.15787 6.09C5.16786 6.09 5.17286 6.09 5.17286 6.09C5.22283 6.12007 5.26281 6.15516 5.29279 6.19526C5.33277 6.22533 5.35275 6.26543 5.35275 6.31556V9.338C5.35275 9.3781 5.33277 9.4182 5.29279 9.4583C5.26281 9.4984 5.22783 9.53348 5.18785 9.56356C5.17786 9.56356 5.16786 9.56857 5.15787 9.5786C5.11789 9.60867 5.08291 9.63874 5.05293 9.66882C5.02295 9.69889 5.00796 9.73398 5.00796 9.77408C5.00796 9.96455 5.09291 10.1049 5.26281 10.1951C5.43271 10.2753 5.6176 10.3154 5.81748 10.3154C5.82747 10.3154 5.83247 10.3154 5.83247 10.3154C5.84246 10.3154 5.85246 10.3154 5.86245 10.3154C6.06233 10.3054 6.24723 10.2553 6.41712 10.165C6.58702 10.0748 6.67197 9.95452 6.67197 9.80415ZM6.67197 3.84948V1.59393C6.67197 1.40346 6.58203 1.26311 6.40213 1.17289C6.23223 1.08267 6.04235 1.03756 5.83247 1.03756C5.62259 1.03756 5.43271 1.08768 5.26281 1.18793C5.09291 1.27815 5.00796 1.41348 5.00796 1.59393C5.00796 1.63403 5.02295 1.66911 5.05293 1.69919C5.08291 1.72926 5.11789 1.75933 5.15787 1.78941C5.16786 1.78941 5.17286 1.78941 5.17286 1.78941C5.17286 1.78941 5.17786 1.79442 5.18785 1.80444C5.22783 1.83452 5.26281 1.86459 5.29279 1.89467C5.33277 1.92474 5.35275 1.96484 5.35275 2.01496V3.38333C5.35275 3.42343 5.33776 3.45852 5.30778 3.48859C5.2778 3.51867 5.24282 3.54874 5.20284 3.57882C5.20284 3.57882 5.19785 3.58383 5.18785 3.59385C5.13788 3.62393 5.09291 3.65901 5.05293 3.69911C5.02295 3.72919 5.00796 3.76928 5.00796 3.81941C5.00796 4.00988 5.09291 4.15022 5.26281 4.24045C5.43271 4.32064 5.6176 4.36074 5.81748 4.36074C5.82747 4.36074 5.83247 4.36074 5.83247 4.36074C5.84246 4.36074 5.85246 4.36074 5.86245 4.36074C6.06233 4.35072 6.24723 4.30059 6.41712 4.21037C6.58702 4.12015 6.67197 3.99985 6.67197 3.84948Z" fill="white"/>
<path d="M22.9177 10.8116C22.9177 10.9119 22.8527 11.0021 22.7228 11.0823C22.6029 11.1725 22.4679 11.2226 22.318 11.2327C22.308 11.2327 22.298 11.2327 22.288 11.2327C22.288 11.2327 22.283 11.2327 22.2731 11.2327L17.8657 11.2477C17.8657 11.2377 17.8307 11.2176 17.7607 11.1876C17.7008 11.1675 17.6308 11.1424 17.5508 11.1124C17.4609 11.0723 17.3809 11.0222 17.311 10.962C17.251 10.9119 17.221 10.8567 17.221 10.7966C17.221 10.6863 17.281 10.5911 17.4009 10.5109C17.5309 10.4207 17.6858 10.3756 17.8657 10.3756H18.2254L17.9106 9.03726H15.2422L14.8974 10.3756H15.2572C15.4271 10.3756 15.577 10.4157 15.7069 10.4959C15.8369 10.5761 15.9018 10.6763 15.9018 10.7966C15.9018 10.9069 15.8369 11.0071 15.7069 11.0973C15.577 11.1876 15.4271 11.2327 15.2572 11.2327L12.9935 11.2477C12.9636 11.2377 12.9186 11.2226 12.8586 11.2026C12.8087 11.1926 12.7537 11.1725 12.6937 11.1424C12.6038 11.1023 12.5238 11.0522 12.4539 10.9921C12.3839 10.9319 12.3489 10.8668 12.3489 10.7966C12.3489 10.6763 12.4139 10.5761 12.5438 10.4959C12.6737 10.4157 12.8236 10.3756 12.9935 10.3756H13.3683L15.7369 0.992444H15.1822C15.0024 0.992444 14.8474 0.952346 14.7175 0.872148C14.5976 0.781926 14.5376 0.676666 14.5376 0.55637C14.5376 0.436074 14.5976 0.335827 14.7175 0.255629C14.8474 0.175432 15.0024 0.135333 15.1822 0.135333H19.2448C19.4247 0.135333 19.5746 0.175432 19.6946 0.255629C19.8245 0.335827 19.8895 0.436074 19.8895 0.55637L22.1381 10.3756H22.2731C22.4529 10.3756 22.6029 10.4207 22.7228 10.5109C22.8527 10.5911 22.9177 10.6863 22.9177 10.7966V10.8116ZM17.7157 8.2403L16.8463 4.43593C16.8363 4.37578 16.8063 4.33067 16.7563 4.30059C16.7163 4.27052 16.6714 4.25548 16.6214 4.25548C16.6114 4.25548 16.6014 4.25548 16.5914 4.25548C16.5914 4.25548 16.5864 4.26049 16.5764 4.27052C16.5364 4.28054 16.4965 4.30059 16.4565 4.33067C16.4265 4.36074 16.4065 4.39583 16.3965 4.43593L15.4371 8.2403H17.7157Z" fill="white"/>
<path d="M33.2558 10.7816C33.2558 10.8618 33.2158 10.9369 33.1359 11.0071C33.0559 11.0773 32.966 11.1324 32.866 11.1725C32.8161 11.1926 32.7711 11.2076 32.7311 11.2176C32.6911 11.2277 32.6512 11.2327 32.6112 11.2327C32.1215 11.2327 31.6368 11.2327 31.1571 11.2327C30.6773 11.2327 30.1976 11.2327 29.7179 11.2327C29.3281 11.2327 29.0583 11.0823 28.9084 10.7816C28.7585 10.4908 28.6685 10.165 28.6385 9.80415C28.6285 9.69388 28.6186 9.58361 28.6086 9.47334C28.6086 9.36306 28.6086 9.2578 28.6086 9.15756C28.6086 9.09741 28.6086 9.03726 28.6086 8.97711C28.6086 8.91696 28.6136 8.86183 28.6236 8.8117C28.6236 8.76158 28.6236 8.71647 28.6236 8.67637C28.6236 8.62625 28.6236 8.58114 28.6236 8.54104C28.6236 8.12 28.4886 7.84934 28.2188 7.72904C27.9589 7.60874 27.5942 7.55361 27.1244 7.56363V10.2553L27.2893 10.3455C27.4592 10.3455 27.6092 10.3906 27.7391 10.4808C27.869 10.571 27.934 10.6663 27.934 10.7665C27.934 10.8968 27.869 11.0071 27.7391 11.0973C27.6092 11.1876 27.4592 11.2327 27.2893 11.2327L23.2567 11.2477C23.0668 11.2377 22.9119 11.1876 22.792 11.0973C22.6721 11.0071 22.6121 10.8968 22.6121 10.7665C22.6121 10.6663 22.6721 10.571 22.792 10.4808C22.9119 10.3906 23.0668 10.3455 23.2567 10.3455L23.3767 10.2553V1.0977C23.3367 1.07765 23.2967 1.05761 23.2567 1.03756C23.2168 1.01751 23.1718 1.00247 23.1218 0.992444C23.1118 0.98242 23.0968 0.977408 23.0768 0.977408C23.0568 0.967383 23.0369 0.962371 23.0169 0.962371C22.9069 0.922272 22.807 0.882173 22.717 0.842074C22.6371 0.791951 22.5971 0.696716 22.5971 0.55637C22.5971 0.436074 22.6571 0.335827 22.777 0.255629C22.8969 0.165407 23.0469 0.120297 23.2267 0.120297H28.8034C30.0327 0.120297 30.9971 0.496223 31.6967 1.24807C32.4063 1.99993 32.7911 2.82696 32.851 3.72919C32.861 3.77931 32.866 3.82943 32.866 3.87956C32.866 3.91966 32.866 3.96477 32.866 4.01489C32.866 4.74669 32.6312 5.42336 32.1615 6.04489C31.7017 6.66642 30.9722 7.06741 29.9728 7.24785V7.35311L30.6174 7.48845C30.6773 7.49847 30.7373 7.51351 30.7973 7.53356C30.8672 7.55361 30.9372 7.57867 31.0071 7.60874C31.3469 7.72904 31.6618 7.90447 31.9516 8.13504C32.2414 8.35558 32.4113 8.58615 32.4613 8.82674C32.4713 8.84679 32.4763 8.86684 32.4763 8.88689C32.4763 8.90694 32.4763 8.92699 32.4763 8.94704C32.4763 8.96709 32.4713 9.00217 32.4613 9.0523C32.4613 9.10242 32.4613 9.16257 32.4613 9.23274C32.4613 9.29289 32.4563 9.35805 32.4463 9.42822C32.4463 9.48837 32.4463 9.55353 32.4463 9.62371C32.4463 9.63373 32.4463 9.64375 32.4463 9.65378C32.4463 9.6638 32.4463 9.67383 32.4463 9.68385C32.4463 9.84425 32.4563 9.98961 32.4763 10.1199C32.4963 10.2502 32.5412 10.3254 32.6112 10.3455C32.6312 10.3555 32.6462 10.3655 32.6562 10.3756C32.6762 10.3756 32.6961 10.3756 32.7161 10.3756C32.856 10.4257 32.981 10.4808 33.0909 10.541C33.2008 10.6011 33.2558 10.6763 33.2558 10.7665V10.7816ZM28.5186 6.09V1.69919C28.5186 1.50872 28.4287 1.36837 28.2488 1.27815C28.0789 1.18793 27.889 1.14281 27.6791 1.14281C27.4692 1.14281 27.2793 1.19294 27.1094 1.29318C26.9395 1.38341 26.8546 1.51874 26.8546 1.69919C26.8546 1.73928 26.8696 1.77437 26.8996 1.80444C26.9296 1.83452 26.9645 1.86459 27.0045 1.89467C27.0045 1.89467 27.0045 1.89968 27.0045 1.9097C27.0145 1.9097 27.0195 1.9097 27.0195 1.9097C27.0695 1.93978 27.1094 1.97486 27.1394 2.01496C27.1794 2.04504 27.1994 2.08514 27.1994 2.13526V5.60882C27.1994 5.64891 27.1794 5.68901 27.1394 5.72911C27.1094 5.76921 27.0745 5.8043 27.0345 5.83437C26.9845 5.86445 26.9395 5.89953 26.8996 5.93963C26.8696 5.9697 26.8546 6.0098 26.8546 6.05993C26.8546 6.2504 26.9395 6.39074 27.1094 6.48096C27.2793 6.56116 27.4642 6.60126 27.6641 6.60126C27.6741 6.60126 27.6791 6.60126 27.6791 6.60126C27.6891 6.60126 27.6991 6.60126 27.7091 6.60126C27.909 6.59124 28.0939 6.54111 28.2638 6.45089C28.4337 6.36067 28.5186 6.24037 28.5186 6.09Z" fill="white"/>
<path d="M42.2089 4.73667C43.2383 4.94719 44.0078 5.3582 44.5175 5.96971C45.0272 6.57119 45.2921 7.21277 45.3121 7.89445C45.3121 7.90447 45.3121 7.9145 45.3121 7.92452C45.3121 7.93455 45.3121 7.94457 45.3121 7.95459C45.3021 8.77662 44.9473 9.52847 44.2477 10.2101C43.5581 10.8918 42.5437 11.2327 41.2045 11.2327L34.9682 11.2477C34.7683 11.2377 34.6134 11.1926 34.5035 11.1124C34.4035 11.0322 34.3486 10.942 34.3386 10.8417C34.3386 10.8317 34.3386 10.8217 34.3386 10.8116C34.3386 10.8116 34.3386 10.8066 34.3386 10.7966C34.3386 10.6963 34.3935 10.6011 34.5035 10.5109C34.6234 10.4106 34.7933 10.3605 35.0132 10.3605L35.1331 10.2553V1.02252C34.9132 1.02252 34.7383 0.977408 34.6084 0.887186C34.4885 0.796963 34.4185 0.696716 34.3985 0.586444C34.3885 0.57642 34.3835 0.566395 34.3835 0.55637C34.3835 0.536321 34.3835 0.521284 34.3835 0.511259C34.3835 0.411012 34.4285 0.325802 34.5185 0.255629C34.6184 0.175432 34.7633 0.135333 34.9532 0.135333H41.5793C42.6786 0.135333 43.5131 0.380938 44.0828 0.872148C44.6525 1.35333 44.9373 1.88965 44.9373 2.48111C44.9373 2.99237 44.7124 3.46854 44.2627 3.90963C43.813 4.34069 43.1284 4.61637 42.2089 4.73667ZM40.6948 9.80415V5.87948C40.6948 5.68901 40.6049 5.54867 40.425 5.45845C40.2551 5.36822 40.0652 5.32311 39.8553 5.32311C39.6454 5.32311 39.4555 5.37324 39.2856 5.47348C39.1157 5.5637 39.0308 5.69904 39.0308 5.87948C39.0308 5.91958 39.0458 5.95467 39.0758 5.98474C39.1057 6.01482 39.1407 6.04489 39.1807 6.07497C39.1807 6.07497 39.1807 6.07998 39.1807 6.09C39.1907 6.09 39.1957 6.09 39.1957 6.09C39.2457 6.12007 39.2856 6.15516 39.3156 6.19526C39.3556 6.22533 39.3756 6.26543 39.3756 6.31556V9.338C39.3756 9.3781 39.3556 9.4182 39.3156 9.4583C39.2856 9.4984 39.2507 9.53348 39.2107 9.56356C39.2007 9.56356 39.1907 9.56857 39.1807 9.5786C39.1407 9.60867 39.1057 9.63874 39.0758 9.66882C39.0458 9.69889 39.0308 9.73398 39.0308 9.77408C39.0308 9.96455 39.1157 10.1049 39.2856 10.1951C39.4555 10.2753 39.6404 10.3154 39.8403 10.3154C39.8503 10.3154 39.8553 10.3154 39.8553 10.3154C39.8653 10.3154 39.8753 10.3154 39.8853 10.3154C40.0852 10.3054 40.2701 10.2553 40.44 10.165C40.6099 10.0748 40.6948 9.95452 40.6948 9.80415ZM40.6948 3.84948V1.59393C40.6948 1.40346 40.6049 1.26311 40.425 1.17289C40.2551 1.08267 40.0652 1.03756 39.8553 1.03756C39.6454 1.03756 39.4555 1.08768 39.2856 1.18793C39.1157 1.27815 39.0308 1.41348 39.0308 1.59393C39.0308 1.63403 39.0458 1.66911 39.0758 1.69919C39.1057 1.72926 39.1407 1.75933 39.1807 1.78941C39.1907 1.78941 39.1957 1.78941 39.1957 1.78941C39.1957 1.78941 39.2007 1.79442 39.2107 1.80444C39.2507 1.83452 39.2856 1.86459 39.3156 1.89467C39.3556 1.92474 39.3756 1.96484 39.3756 2.01496V3.38333C39.3756 3.42343 39.3606 3.45852 39.3306 3.48859C39.3006 3.51867 39.2657 3.54874 39.2257 3.57882C39.2257 3.57882 39.2207 3.58383 39.2107 3.59385C39.1607 3.62393 39.1157 3.65901 39.0758 3.69911C39.0458 3.72919 39.0308 3.76928 39.0308 3.81941C39.0308 4.00988 39.1157 4.15022 39.2856 4.24045C39.4555 4.32064 39.6404 4.36074 39.8403 4.36074C39.8503 4.36074 39.8553 4.36074 39.8553 4.36074C39.8653 4.36074 39.8753 4.36074 39.8853 4.36074C40.0852 4.35072 40.2701 4.30059 40.44 4.21037C40.6099 4.12015 40.6948 3.99985 40.6948 3.84948Z" fill="white"/>
<path d="M54.7518 9.56356L54.467 10.8116C54.457 10.8317 54.447 10.8567 54.437 10.8868C54.437 10.9269 54.432 10.962 54.422 10.9921C54.382 11.1023 54.3171 11.2026 54.2271 11.2928C54.1372 11.383 54.0072 11.4282 53.8373 11.4282C53.7474 11.4282 53.6624 11.4231 53.5825 11.4131C53.5025 11.4031 53.4276 11.3881 53.3576 11.368C53.3376 11.358 53.3176 11.348 53.2977 11.3379C53.2777 11.3379 53.2577 11.3379 53.2377 11.3379C53.1378 11.3179 53.0328 11.2978 52.9229 11.2778C52.8229 11.2577 52.698 11.2477 52.5481 11.2477L46.9114 11.2627C46.9114 11.2527 46.8765 11.2327 46.8065 11.2026C46.7465 11.1825 46.6766 11.1525 46.5966 11.1124C46.5067 11.0723 46.4267 11.0222 46.3568 10.962C46.2968 10.9119 46.2668 10.8567 46.2668 10.7966C46.2668 10.6863 46.3268 10.5911 46.4467 10.5109C46.5766 10.4207 46.7315 10.3756 46.9114 10.3756L47.1363 10.3004V1.11274L46.9114 1.02252C46.9014 1.02252 46.8615 1.01249 46.7915 0.992444C46.7315 0.972395 46.6666 0.942321 46.5966 0.902222C46.5167 0.862124 46.4417 0.817012 46.3718 0.766889C46.3018 0.706741 46.2668 0.64158 46.2668 0.571407C46.2668 0.451111 46.3268 0.350864 46.4467 0.270667C46.5766 0.190469 46.7315 0.15037 46.9114 0.15037H51.8885C51.9385 0.15037 51.9934 0.15037 52.0534 0.15037C52.1134 0.140346 52.1733 0.130321 52.2333 0.120297C52.2633 0.110271 52.2933 0.105259 52.3232 0.105259C52.3632 0.0952343 52.3982 0.0852097 52.4282 0.0751851C52.4881 0.0651606 52.5431 0.0551357 52.5931 0.0451105C52.6431 0.035086 52.678 0.0250614 52.698 0.0150368C52.708 0.0150368 52.718 0.0150368 52.728 0.0150368C52.748 0.00501228 52.763 0 52.773 0C52.783 0 52.793 0 52.803 0C52.8229 0 52.8379 0 52.8479 0C52.8879 0 52.9279 0.00501228 52.9679 0.0150368C53.0078 0.0150368 53.0528 0.0200491 53.1028 0.0300737C53.2227 0.0701725 53.3376 0.130321 53.4476 0.210519C53.5675 0.290716 53.6525 0.385951 53.7024 0.496222L54.377 1.80444C54.397 1.83452 54.412 1.86459 54.422 1.89467C54.432 1.92474 54.432 1.95482 54.422 1.98489C54.422 2.06509 54.387 2.14528 54.3171 2.22548C54.2571 2.29565 54.1721 2.34578 54.0622 2.37585C54.0422 2.38588 54.0172 2.3959 53.9873 2.40593C53.9673 2.40593 53.9473 2.40593 53.9273 2.40593C53.8973 2.41595 53.8673 2.42096 53.8373 2.42096C53.8174 2.42096 53.7974 2.42096 53.7774 2.42096C53.6475 2.42096 53.5275 2.40091 53.4176 2.36082C53.3077 2.31069 53.2327 2.25054 53.1927 2.18037L52.4731 1.02252H51.3938L51.2589 1.14281V4.57126H52.4132C52.4032 4.55121 52.3982 4.53617 52.3982 4.52615C52.3982 4.5061 52.3982 4.49106 52.3982 4.48104C52.3982 4.46099 52.3982 4.44595 52.3982 4.43593C52.4082 4.41588 52.4132 4.39583 52.4132 4.37578C52.4332 4.31563 52.4682 4.26049 52.5181 4.21037C52.5781 4.15022 52.6381 4.10511 52.698 4.07504C52.738 4.05499 52.773 4.04496 52.803 4.04496C52.8429 4.03494 52.8829 4.02993 52.9229 4.02993C52.9429 4.02993 52.9629 4.02993 52.9828 4.02993C53.0028 4.02993 53.0228 4.03494 53.0428 4.04496C53.1228 4.05499 53.1977 4.07504 53.2677 4.10511C53.3376 4.12516 53.3976 4.15524 53.4476 4.19533C53.4875 4.21538 53.5175 4.23543 53.5375 4.25548C53.5575 4.26551 53.5725 4.28054 53.5825 4.30059L54.5719 5.87948C54.5819 5.88951 54.5869 5.90454 54.5869 5.92459C54.5969 5.93462 54.6019 5.94464 54.6019 5.95467C54.6119 5.96469 54.6169 5.97973 54.6169 5.99978C54.6169 6.0098 54.6169 6.01983 54.6169 6.02985C54.6169 6.11005 54.5819 6.19025 54.5119 6.27045C54.452 6.34062 54.357 6.39575 54.2271 6.43585C54.2071 6.44588 54.1821 6.4559 54.1522 6.46593C54.1322 6.46593 54.1122 6.46593 54.0922 6.46593C54.0622 6.47595 54.0322 6.48096 54.0022 6.48096C53.9823 6.48096 53.9623 6.48096 53.9423 6.48096C53.8124 6.48096 53.6924 6.4559 53.5825 6.40578C53.4826 6.35566 53.4076 6.29551 53.3576 6.22534L53.0128 5.71407C52.9529 5.59378 52.8479 5.51859 52.698 5.48852C52.5581 5.45845 52.3432 5.44341 52.0534 5.44341H51.2589V10.3756H52.3832C52.5531 10.3756 52.688 10.3455 52.788 10.2853C52.8879 10.2252 52.9629 10.155 53.0128 10.0748C53.0228 10.0648 53.0278 10.0548 53.0278 10.0447C53.0378 10.0347 53.0478 10.0247 53.0578 10.0147L53.5675 9.20267C53.6175 9.12247 53.6974 9.06232 53.8074 9.02222C53.9173 8.98213 54.0372 8.96208 54.1671 8.96208C54.2171 8.96208 54.2621 8.96208 54.3021 8.96208C54.352 8.96208 54.397 8.9721 54.437 8.99215C54.5569 9.03225 54.6419 9.0924 54.6918 9.17259C54.7418 9.25279 54.7668 9.338 54.7668 9.42822C54.7668 9.44827 54.7668 9.47334 54.7668 9.50341C54.7668 9.52346 54.7618 9.54351 54.7518 9.56356Z" fill="white"/>
<path d="M66.4003 10.7816C66.4003 10.8618 66.3603 10.9369 66.2803 11.0071C66.2004 11.0773 66.1104 11.1324 66.0105 11.1725C65.9605 11.1926 65.9155 11.2076 65.8756 11.2176C65.8356 11.2277 65.7956 11.2327 65.7556 11.2327C65.2659 11.2327 64.7812 11.2327 64.3015 11.2327C63.8218 11.2327 63.3421 11.2327 62.8624 11.2327C62.4726 11.2327 62.2027 11.0823 62.0528 10.7816C61.9029 10.4908 61.813 10.165 61.783 9.80415C61.773 9.69388 61.763 9.58361 61.753 9.47334C61.753 9.36306 61.753 9.2578 61.753 9.15756C61.753 9.09741 61.753 9.03726 61.753 8.97711C61.753 8.91696 61.758 8.86183 61.768 8.8117C61.768 8.76158 61.768 8.71647 61.768 8.67637C61.768 8.62625 61.768 8.58114 61.768 8.54104C61.768 8.12 61.6331 7.84934 61.3632 7.72904C61.1034 7.60874 60.7386 7.55361 60.2689 7.56363V10.2553L60.4338 10.3455C60.6037 10.3455 60.7536 10.3906 60.8835 10.4808C61.0134 10.571 61.0784 10.6663 61.0784 10.7665C61.0784 10.8968 61.0134 11.0071 60.8835 11.0973C60.7536 11.1876 60.6037 11.2327 60.4338 11.2327L56.4012 11.2477C56.2113 11.2377 56.0564 11.1876 55.9365 11.0973C55.8165 11.0071 55.7566 10.8968 55.7566 10.7665C55.7566 10.6663 55.8165 10.571 55.9365 10.4808C56.0564 10.3906 56.2113 10.3455 56.4012 10.3455L56.5211 10.2553V1.0977C56.4811 1.07765 56.4412 1.05761 56.4012 1.03756C56.3612 1.01751 56.3162 1.00247 56.2663 0.992444C56.2563 0.98242 56.2413 0.977408 56.2213 0.977408C56.2013 0.967383 56.1813 0.962371 56.1613 0.962371C56.0514 0.922272 55.9514 0.882173 55.8615 0.842074C55.7815 0.791951 55.7416 0.696716 55.7416 0.55637C55.7416 0.436074 55.8015 0.335827 55.9215 0.255629C56.0414 0.165407 56.1913 0.120297 56.3712 0.120297H61.9479C63.1772 0.120297 64.1416 0.496223 64.8412 1.24807C65.5508 1.99993 65.9355 2.82696 65.9955 3.72919C66.0055 3.77931 66.0105 3.82943 66.0105 3.87956C66.0105 3.91966 66.0105 3.96477 66.0105 4.01489C66.0105 4.74669 65.7756 5.42336 65.3059 6.04489C64.8462 6.66642 64.1166 7.06741 63.1172 7.24785V7.35311L63.7618 7.48845C63.8218 7.49847 63.8817 7.51351 63.9417 7.53356C64.0117 7.55361 64.0816 7.57867 64.1516 7.60874C64.4914 7.72904 64.8062 7.90447 65.096 8.13504C65.3859 8.35558 65.5558 8.58615 65.6057 8.82674C65.6157 8.84679 65.6207 8.86684 65.6207 8.88689C65.6207 8.90694 65.6207 8.92699 65.6207 8.94704C65.6207 8.96709 65.6157 9.00217 65.6057 9.0523C65.6057 9.10242 65.6057 9.16257 65.6057 9.23274C65.6057 9.29289 65.6007 9.35805 65.5907 9.42822C65.5907 9.48837 65.5907 9.55353 65.5907 9.62371C65.5907 9.63373 65.5907 9.64375 65.5907 9.65378C65.5907 9.6638 65.5907 9.67383 65.5907 9.68385C65.5907 9.84425 65.6007 9.98961 65.6207 10.1199C65.6407 10.2502 65.6857 10.3254 65.7556 10.3455C65.7756 10.3555 65.7906 10.3655 65.8006 10.3756C65.8206 10.3756 65.8406 10.3756 65.8606 10.3756C66.0005 10.4257 66.1254 10.4808 66.2354 10.541C66.3453 10.6011 66.4003 10.6763 66.4003 10.7665V10.7816ZM61.6631 6.09V1.69919C61.6631 1.50872 61.5731 1.36837 61.3932 1.27815C61.2233 1.18793 61.0334 1.14281 60.8236 1.14281C60.6137 1.14281 60.4238 1.19294 60.2539 1.29318C60.084 1.38341 59.999 1.51874 59.999 1.69919C59.999 1.73928 60.014 1.77437 60.044 1.80444C60.074 1.83452 60.109 1.86459 60.149 1.89467C60.149 1.89467 60.149 1.89968 60.149 1.9097C60.159 1.9097 60.1639 1.9097 60.1639 1.9097C60.2139 1.93978 60.2539 1.97486 60.2839 2.01496C60.3239 2.04504 60.3438 2.08514 60.3438 2.13526V5.60882C60.3438 5.64891 60.3239 5.68901 60.2839 5.72911C60.2539 5.76921 60.2189 5.8043 60.1789 5.83437C60.129 5.86445 60.084 5.89953 60.044 5.93963C60.014 5.9697 59.999 6.0098 59.999 6.05993C59.999 6.2504 60.084 6.39074 60.2539 6.48096C60.4238 6.56116 60.6087 6.60126 60.8086 6.60126C60.8186 6.60126 60.8236 6.60126 60.8236 6.60126C60.8336 6.60126 60.8435 6.60126 60.8535 6.60126C61.0534 6.59124 61.2383 6.54111 61.4082 6.45089C61.5781 6.36067 61.6631 6.24037 61.6631 6.09Z" fill="white"/>
</svg>
