<svg width="67" height="21" viewBox="0 0 67 21" fill="none" xmlns="http://www.w3.org/2000/svg">
<path d="M12.2282 15.6404C11.9505 17.2182 11.1743 18.4736 9.89967 19.4067C8.62508 20.3397 7.16257 20.7978 5.51214 20.7808C5.39775 20.7808 5.28337 20.7808 5.16898 20.7808C5.07094 20.7808 4.96472 20.7724 4.85033 20.7554C4.78497 20.7554 4.71144 20.7469 4.62973 20.7299C4.56437 20.7299 4.49083 20.7215 4.40913 20.7045C3.59208 20.6197 2.80772 20.45 2.05604 20.1955C1.30436 19.9411 0.756939 19.5 0.41378 18.8723C0.381098 18.8214 0.356587 18.7281 0.340246 18.5923C0.323905 18.4397 0.315735 18.2785 0.315735 18.1088C0.315735 17.9731 0.315735 17.8459 0.315735 17.7271C0.332076 17.6084 0.348417 17.5151 0.364758 17.4472C0.446462 17.1588 0.691575 16.9213 1.1001 16.7347C1.52496 16.5481 1.97434 16.4547 2.44822 16.4547C2.4809 16.4547 2.51359 16.4547 2.54627 16.4547C2.59529 16.4547 2.63614 16.4547 2.66882 16.4547C3.28978 16.4887 3.77183 16.6753 4.11499 17.0146C4.45815 17.3539 4.71144 17.7186 4.87485 18.1088C4.92387 18.2276 4.96472 18.3463 4.9974 18.4651C5.03008 18.5839 5.06277 18.6941 5.09545 18.7959C5.14447 19.0165 5.22617 19.1776 5.34056 19.2794C5.47129 19.3643 5.61836 19.4067 5.78176 19.4067C5.84713 19.4067 5.91249 19.3982 5.97786 19.3812C6.05956 19.3643 6.13309 19.3473 6.19846 19.3303C6.47625 19.2116 6.72954 19.008 6.95831 18.7196C7.20342 18.4312 7.32598 18.1173 7.32598 17.778C7.30964 17.6762 7.28513 17.5829 7.25245 17.4981C7.2361 17.3963 7.21159 17.303 7.17891 17.2182C6.96648 16.6753 6.59064 16.1409 6.05139 15.615C5.51214 15.0891 4.93204 14.5716 4.31108 14.0627C4.08231 13.8591 3.84537 13.664 3.60026 13.4774C3.35514 13.2738 3.12637 13.0787 2.91394 12.8921C2.19494 12.2813 1.61484 11.4755 1.17363 10.4746C0.748769 9.45665 0.511826 8.4133 0.462803 7.3445C0.462803 7.2936 0.462803 7.24271 0.462803 7.19181C0.462803 7.12395 0.462803 7.06457 0.462803 7.01368C0.462803 5.45289 0.95303 4.04479 1.93348 2.78937C2.93028 1.53396 4.57254 0.90625 6.86026 0.90625C7.12172 0.90625 7.39951 0.931698 7.69365 0.982593C8.00413 1.01652 8.3146 1.0759 8.62508 1.16073C9.42578 1.38127 10.1611 1.71209 10.8311 2.15318C11.5011 2.59428 11.8361 3.07778 11.8361 3.6037C11.8361 4.01086 11.6236 4.34168 11.1988 4.59615C10.7739 4.85063 10.3082 4.98635 9.80163 5.00332C9.78528 5.00332 9.76077 5.00332 9.72809 5.00332C9.71175 5.00332 9.69541 5.00332 9.67907 5.00332C9.33591 5.00332 9.01726 4.94394 8.72313 4.82518C8.42899 4.70643 8.20022 4.51133 8.03681 4.23989C7.98779 4.15506 7.94693 4.07024 7.91425 3.98541C7.88157 3.88362 7.85706 3.79031 7.84072 3.70549C7.84072 3.67156 7.83255 3.64611 7.81621 3.62914C7.81621 3.59522 7.80804 3.56129 7.7917 3.52735C7.77535 3.4086 7.75084 3.29833 7.71816 3.19653C7.68548 3.07778 7.63646 2.97599 7.57109 2.89116C7.45671 2.75544 7.30147 2.65365 7.10538 2.58579C6.92563 2.51793 6.72954 2.484 6.51711 2.484C6.50076 2.484 6.48442 2.484 6.46808 2.484C6.46808 2.484 6.45991 2.484 6.44357 2.484C5.98603 2.50097 5.59384 2.66214 5.26703 2.96751C4.95655 3.25591 4.98106 3.58673 5.34056 3.95996C5.37324 3.99389 5.40592 4.02782 5.43861 4.06175C5.47129 4.09568 5.51214 4.12961 5.56116 4.16355C6.18212 4.79125 6.7949 5.39351 7.39951 5.97033C8.00413 6.53017 8.57606 7.08154 9.11531 7.62442C10.0467 8.6084 10.8148 9.61782 11.4194 10.6527C12.0403 11.6706 12.3508 12.8497 12.3508 14.1899C12.3508 14.4105 12.3426 14.648 12.3263 14.9024C12.31 15.14 12.2773 15.3859 12.2282 15.6404Z" fill="white"/>
<path d="M30.6945 19.483C30.6945 19.6866 30.5883 19.8562 30.3758 19.992C30.1634 20.1446 29.9183 20.221 29.6405 20.221L23.0224 20.2464C22.712 20.2295 22.4587 20.1446 22.2626 19.992C22.0665 19.8562 21.9684 19.6781 21.9684 19.4576C21.9684 19.2879 22.0665 19.1267 22.2626 18.9741C22.4587 18.8214 22.712 18.745 23.0224 18.745L23.145 18.5923V9.99105H19.9585V18.6178L20.1791 18.7705C20.4569 18.7705 20.702 18.8468 20.9145 18.9995C21.1269 19.1522 21.2331 19.3134 21.2331 19.483C21.2331 19.7036 21.1269 19.8817 20.9145 20.0174C20.702 20.1701 20.4569 20.2464 20.1791 20.2464L13.5611 20.2719C13.2506 20.2549 12.9973 20.1701 12.8012 20.0174C12.6051 19.8817 12.5071 19.7036 12.5071 19.483C12.5071 19.3134 12.6051 19.1522 12.8012 18.9995C12.9973 18.8468 13.2506 18.7705 13.5611 18.7705L13.7326 18.6178V3.09475L13.5365 2.94206C13.2424 2.94206 12.9891 2.8742 12.7767 2.73848C12.5806 2.60276 12.4826 2.42462 12.4826 2.20408C12.4826 2.0005 12.5806 1.83085 12.7767 1.69513C12.9891 1.54244 13.2424 1.4661 13.5365 1.4661H20.1546C20.4487 1.4661 20.6939 1.54244 20.8899 1.69513C21.1024 1.83085 21.2086 2.0005 21.2086 2.20408C21.2086 2.42462 21.1024 2.60276 20.8899 2.73848C20.6939 2.8742 20.4487 2.94206 20.1546 2.94206L19.9585 3.09475V8.71867H23.145V3.0693L22.9489 2.94206C22.6874 2.94206 22.4505 2.8742 22.2381 2.73848C22.0256 2.60276 21.9194 2.42462 21.9194 2.20408C21.9194 1.98353 22.0256 1.8054 22.2381 1.66968C22.4505 1.53396 22.6874 1.4661 22.9489 1.4661H29.567C29.8774 1.4661 30.1307 1.53396 30.3268 1.66968C30.5229 1.8054 30.6209 1.98353 30.6209 2.20408C30.6209 2.42462 30.5229 2.60276 30.3268 2.73848C30.1307 2.8742 29.8774 2.94206 29.567 2.94206L29.3954 3.0693V18.5923L29.6405 18.745C29.9183 18.745 30.1634 18.8214 30.3758 18.9741C30.5883 19.1267 30.6945 19.2879 30.6945 19.4576V19.483Z" fill="white"/>
<path d="M49.0384 10.8308C49.0384 13.5452 48.2295 15.8694 46.6117 17.8035C44.994 19.7375 43.0412 20.7045 40.7535 20.7045C38.4495 20.7045 36.4885 19.7375 34.8708 17.8035C33.253 15.8694 32.4442 13.5452 32.4442 10.8308C32.4442 8.08248 33.253 5.7413 34.8708 3.80728C36.4885 1.87326 38.4495 0.90625 40.7535 0.90625C43.0412 0.90625 44.994 1.87326 46.6117 3.80728C48.2295 5.7413 49.0384 8.08248 49.0384 10.8308ZM42.3958 18.0579C42.3958 17.9731 42.3631 17.9053 42.2977 17.8544C42.2487 17.7865 42.1915 17.7271 42.1262 17.6762C42.0445 17.6253 41.9709 17.566 41.9056 17.4981C41.8565 17.4302 41.832 17.3624 41.832 17.2945V3.68004C41.832 3.3577 41.685 3.12019 41.3908 2.96751C41.113 2.81482 40.7944 2.73848 40.4349 2.73848C40.4185 2.73848 40.4022 2.73848 40.3858 2.73848C40.3858 2.73848 40.3777 2.73848 40.3613 2.73848C40.0509 2.75544 39.7567 2.84027 39.4789 2.99295C39.2175 3.14564 39.0867 3.37467 39.0867 3.68004C39.0867 3.71397 39.0949 3.75638 39.1113 3.80728C39.1276 3.84121 39.1521 3.87514 39.1848 3.90907C39.2011 3.943 39.2256 3.98541 39.2583 4.03631C39.3074 4.07024 39.3482 4.10417 39.3809 4.1381C39.4626 4.20596 39.528 4.26534 39.577 4.31623C39.6423 4.36713 39.675 4.39257 39.675 4.39257V18.0834C39.675 18.3548 39.8139 18.5669 40.0917 18.7196C40.3695 18.8553 40.6718 18.9316 40.9986 18.9486C41.015 18.9486 41.0231 18.9486 41.0231 18.9486C41.0395 18.9486 41.0558 18.9486 41.0722 18.9486C41.4153 18.9486 41.7176 18.8808 41.9791 18.745C42.2569 18.5923 42.3958 18.3633 42.3958 18.0579Z" fill="white"/>
<path d="M66.5659 7.75166C66.5659 9.46513 65.9122 10.9411 64.605 12.1795C63.2977 13.418 61.729 14.0372 59.8988 14.0372H57.1535V18.5923L57.4231 18.745C57.7009 18.745 57.9461 18.8214 58.1585 18.9741C58.3709 19.1267 58.4771 19.2879 58.4771 19.4576C58.4771 19.6781 58.3709 19.8647 58.1585 20.0174C57.9461 20.1701 57.7009 20.2464 57.4231 20.2464L50.8051 20.2719C50.4946 20.2549 50.2413 20.1701 50.0452 20.0174C49.8655 19.8647 49.7756 19.6781 49.7756 19.4576C49.7756 19.2879 49.8655 19.1267 50.0452 18.9741C50.2413 18.8214 50.4946 18.745 50.8051 18.745L51.0257 18.5923V3.09475L50.7806 2.94206C50.4864 2.94206 50.2332 2.8742 50.0207 2.73848C49.8246 2.58579 49.7266 2.39918 49.7266 2.17863C49.7266 1.97505 49.8246 1.79692 50.0207 1.64423C50.2332 1.49154 50.4864 1.4152 50.7806 1.4152H59.9233C61.7535 1.4152 63.314 2.03443 64.605 3.27288C65.9122 4.51133 66.5659 6.00426 66.5659 7.75166ZM59.4331 11.5434V4.0872C59.4331 3.76487 59.286 3.52735 58.9919 3.37467C58.7141 3.22198 58.4036 3.14564 58.0604 3.14564C57.7173 3.14564 57.4068 3.23047 57.129 3.40012C56.8512 3.5528 56.7123 3.78183 56.7123 4.0872C56.7123 4.15506 56.7368 4.21444 56.7859 4.26534C56.8349 4.31623 56.8921 4.36713 56.9574 4.41802C56.9738 4.41802 56.9819 4.41802 56.9819 4.41802C56.9819 4.41802 56.9901 4.4265 57.0065 4.44347C57.0718 4.49436 57.129 4.54526 57.178 4.59615C57.2434 4.64705 57.2761 4.71491 57.2761 4.79973V10.729C57.2761 10.7969 57.2434 10.8648 57.178 10.9326C57.129 11.0005 57.0718 11.0598 57.0065 11.1107C56.9248 11.1616 56.8512 11.221 56.7859 11.2889C56.7368 11.3398 56.7123 11.4076 56.7123 11.4925C56.7123 11.8148 56.8512 12.0523 57.129 12.205C57.4068 12.3407 57.7091 12.4086 58.0359 12.4086C58.0523 12.4086 58.0604 12.4086 58.0604 12.4086C58.0768 12.4086 58.0931 12.4086 58.1095 12.4086C58.4363 12.3916 58.7386 12.3068 59.0164 12.1541C59.2942 12.0014 59.4331 11.7978 59.4331 11.5434Z" fill="white"/>
</svg>
