<svg width="21" height="35" viewBox="0 0 21 35" fill="none" xmlns="http://www.w3.org/2000/svg">
<path fill-rule="evenodd" clip-rule="evenodd" d="M9.46278 34.7538L6.84231 34.7538C6.62394 34.7538 6.33277 34.7538 6.04161 34.681L5.24091 34.681C4.94975 34.681 4.513 34.5354 4.29463 34.1715C4.07626 33.8075 4.07626 33.5163 4.07626 33.2252L4.07626 32.4245C4.07626 32.2061 4.00347 31.9877 3.93068 31.7693C3.7123 31.4054 3.49393 31.3326 3.12998 31.551C2.9116 31.6965 2.69323 31.8421 2.47486 32.0605C2.25649 32.2789 1.96532 32.4973 1.52858 32.57C1.09184 32.6428 0.582301 32.4245 0.363928 32.0605C0.0727659 31.6965 -2.61651e-05 31.3326 -2.61492e-05 30.9686C0.137269 27.8566 0.130698 24.9748 0.124984 22.4679C0.121608 20.9874 0.118531 19.6377 0.145557 18.4485L0.145557 17.3567L0.145557 16.2648C0.118532 15.0756 0.121608 13.7259 0.124984 12.2455C0.130699 9.73855 0.13727 6.85672 -2.49592e-05 3.7447L-2.30519e-05 3.74469C0.072769 3.38074 0.145561 3.01679 0.36393 2.65284C0.582302 2.28888 1.09184 2.07051 1.52858 2.1433C1.96533 2.21609 2.25649 2.43446 2.47486 2.65284C2.60252 2.74858 2.7022 2.83033 2.79229 2.90423C2.90768 2.99887 3.00735 3.08062 3.12998 3.16237C3.49393 3.45354 3.7123 3.30796 3.93068 2.944C4.00347 2.72563 4.07626 2.50725 4.07626 2.28888L4.07626 1.48818C4.07626 1.19701 4.07626 0.905846 4.29463 0.54189C4.513 0.105142 4.94975 0.032351 5.24091 0.032351C5.44131 -0.0177484 5.64171 0.00111523 5.81837 0.017745C5.89839 0.0252772 5.97354 0.032351 6.04161 0.0323511L6.76952 0.0323511L9.38999 0.0323512L10.0451 0.0323512L10.7002 0.0323513L13.3207 0.0323514L14.0486 0.0323514L14.8493 0.0323514C15.1405 0.0323515 15.5044 0.177934 15.7956 0.54189C16.0139 0.905847 16.0139 1.19701 16.0139 1.48818L16.0139 2.28888C16.0139 2.50725 16.0139 2.72563 16.0867 2.944C16.3051 3.30796 16.5235 3.45354 16.8874 3.16238C17.1058 3.08958 17.3242 2.87121 17.5426 2.65284C17.7609 2.43446 18.0521 2.21609 18.4888 2.1433C18.9256 2.07051 19.4351 2.28888 19.6535 2.65284C19.9447 3.01679 20.0174 3.38075 20.0174 3.74471C19.8404 7.75809 19.8547 11.3886 19.8665 14.3647C19.8693 15.0591 19.8719 15.7179 19.8719 16.3376C19.7991 16.7015 19.7991 17.0655 19.7991 17.4295C19.8719 17.7934 19.8719 18.1574 19.8719 18.5213C19.9375 19.9656 19.9588 21.6467 19.9823 23.5113C20.011 25.7815 20.0431 28.3237 20.163 31.0414C20.0902 31.4054 20.0174 31.7693 19.7991 32.1333C19.5807 32.4973 19.0712 32.7156 18.6344 32.6428C18.1977 32.57 17.9065 32.3517 17.6881 32.1333C17.5605 32.0376 17.4608 31.9558 17.3707 31.8819C17.2553 31.7873 17.1557 31.7055 17.033 31.6238C16.6691 31.3326 16.4507 31.4782 16.2323 31.8421C16.1595 32.0605 16.0867 32.2789 16.0867 32.4973L16.0867 33.298C16.0867 33.5891 16.0867 33.8803 15.8684 34.2442C15.65 34.681 15.2133 34.7538 14.9221 34.7538C14.7217 34.8039 14.5213 34.785 14.3446 34.7684C14.2646 34.7609 14.1895 34.7538 14.1214 34.7538L13.3935 34.7538L10.773 34.7538L10.1179 34.7538L9.46278 34.7538ZM1.00127 20.4622C1.08772 23.4036 1.19474 27.0448 1.01905 30.9686C1.01905 31.551 1.31021 31.9149 1.67416 31.7693C1.81974 31.7693 2.03812 31.6238 2.25649 31.4782L2.32928 31.4054C2.11091 30.0951 1.96533 24.2718 1.96533 17.2839C1.96533 10.5143 2.03812 4.83657 2.25649 3.30796C2.25649 3.23517 2.1837 3.23517 2.1837 3.23517C1.96533 3.08958 1.74696 2.944 1.60137 2.944C1.31021 2.87121 1.01905 3.23517 1.01905 3.7447C1.19474 7.66856 1.08772 11.3097 1.00127 14.2511C0.980268 14.9656 0.960481 15.6388 0.946254 16.2648L0.946254 17.3567L0.946254 18.4485C0.960481 19.0745 0.980268 19.7477 1.00127 20.4622ZM19.144 16.2648C19.0712 13.1348 18.9984 8.62172 19.2167 3.8175C19.2167 3.23517 18.9256 2.87121 18.6344 2.944C18.6073 2.95755 18.5777 2.9711 18.546 2.98559C18.4075 3.04894 18.2298 3.13023 18.0521 3.30796C17.9793 3.38075 17.8337 3.52633 17.6881 3.59912C17.8337 4.98216 17.9793 10.5871 17.9793 17.3567C17.9793 24.1263 17.9065 29.804 17.6881 31.187C17.7734 31.2723 17.8587 31.3326 17.9293 31.3825C17.9793 31.4179 18.0219 31.448 18.0521 31.4782C18.2705 31.6238 18.4888 31.7693 18.6344 31.7693C18.9256 31.8421 19.2167 31.4782 19.2167 30.9686C18.9984 26.0916 19.0712 21.6514 19.144 18.4485L19.144 17.3567L19.144 16.2648ZM8.07975 31.1142L8.95324 31.3326C9.38999 31.4054 9.82673 31.4782 10.2635 31.4782C10.7002 31.4782 11.2098 31.4054 11.6465 31.3326L12.52 31.1142C12.8839 31.0414 13.1023 30.8958 13.0295 30.8958L12.9567 30.8231C12.9266 30.8231 12.8839 30.8106 12.834 30.7959C12.7633 30.7752 12.6781 30.7503 12.5928 30.7503C12.5145 30.7307 12.4152 30.7164 12.3034 30.7003C11.9991 30.6564 11.6019 30.5992 11.2825 30.3863C11.0642 30.1679 10.8458 29.9496 10.773 29.6584C10.6274 29.3672 10.7002 29.0033 10.9186 28.7121C11.2468 28.3292 11.616 28.193 11.9029 28.0871C11.9978 28.0521 12.0837 28.0204 12.156 27.9842C12.4472 27.8386 12.5928 27.5474 12.6656 27.1835C12.7384 26.8195 12.6656 26.5284 12.3744 26.31C12.2642 26.1998 12.1436 26.1 12.0164 25.9949C11.8077 25.8222 11.5815 25.6351 11.3553 25.3637C11.2098 25.1453 11.0642 24.927 10.9914 24.6358C10.9914 24.3446 11.0642 23.9807 11.2098 23.7623C11.5009 23.3547 11.8853 23.2266 12.2137 23.1171C12.2958 23.0897 12.3744 23.0635 12.4472 23.0344C12.5928 22.9616 12.8112 22.8888 12.8112 22.8888L12.8112 22.816C12.7384 22.5976 12.5928 22.5248 12.2288 22.5248L11.7193 22.5248C11.4281 22.5248 11.137 22.4521 11.0642 22.1609L11.0642 21.7969L11.0642 21.5786C11.0642 21.5058 11.0824 21.433 11.1006 21.3602C11.1188 21.2874 11.137 21.2146 11.137 21.1418L11.137 20.9234L10.4818 20.9234C10.1179 20.9234 9.75394 20.9234 9.38999 20.8507C9.46278 20.9234 9.46278 21.069 9.46278 21.1418C9.46278 21.2146 9.48098 21.2874 9.49917 21.3602C9.51737 21.433 9.53557 21.5058 9.53557 21.5786L9.53557 21.7969C9.53557 21.8485 9.5447 21.8909 9.55327 21.9307C9.56887 22.0032 9.58257 22.0669 9.53557 22.1609C9.46278 22.3793 9.17161 22.5248 8.88045 22.5248L8.37092 22.5248C8.07975 22.5248 7.86138 22.5976 7.78859 22.816C7.7158 22.8888 7.78859 22.8888 7.78859 22.8888C7.78859 22.8888 7.93417 22.9616 8.15254 23.0344C8.22534 23.0635 8.30395 23.0897 8.38606 23.1171C8.71449 23.2266 9.09882 23.3547 9.38999 23.7623C9.60836 23.9807 9.68115 24.3446 9.60836 24.6358C9.53557 24.927 9.38999 25.1453 9.24441 25.3637C9.01821 25.6351 8.79202 25.8222 8.5833 25.9949C8.45618 26.1 8.33554 26.1998 8.22533 26.31C8.00696 26.5284 7.86138 26.8195 7.93417 27.1835C7.93417 27.5474 8.15254 27.8386 8.44371 27.9842C8.51609 28.0204 8.60196 28.0521 8.69686 28.0871C8.98371 28.193 9.35298 28.3292 9.68115 28.7121C9.89952 29.0033 9.89952 29.3672 9.82673 29.6584C9.75394 29.9496 9.53557 30.2407 9.3172 30.3863C8.88045 30.7503 8.29812 30.7503 8.00696 30.7503L8.00694 30.7503C7.78859 30.7503 7.7158 30.7503 7.64301 30.8231C7.57022 30.8231 7.57022 30.8958 7.57022 30.8958C7.57022 30.8958 7.78859 31.0414 8.07975 31.1142ZM8.29637 4.15865C8.60065 4.20249 8.99785 4.25972 9.3172 4.47262C9.53557 4.6182 9.75394 4.83657 9.82673 5.12774C9.89952 5.4189 9.89952 5.78286 9.82673 6.14682C9.49856 6.52969 9.12929 6.66596 8.84245 6.77182C8.74755 6.80685 8.66167 6.83854 8.58929 6.87473C8.29813 7.02031 8.15254 7.31148 8.07975 7.67543C8.00696 8.03939 8.07975 8.33055 8.37092 8.54893C8.48112 8.65914 8.60176 8.75892 8.72888 8.86406C8.9376 9.03669 9.16379 9.22378 9.38999 9.49521L9.38999 9.49522C9.53557 9.71359 9.68115 9.93197 9.75394 10.2231C9.75394 10.5143 9.68115 10.8782 9.53557 11.0966C9.24441 11.5043 8.86007 11.6324 8.53164 11.7418C8.44953 11.7692 8.37092 11.7954 8.29812 11.8245C8.15254 11.8973 7.93417 11.9701 7.93417 11.9701L7.93417 12.0429C8.00696 12.2613 8.15254 12.3341 8.5165 12.3341L9.02603 12.3341C9.3172 12.3341 9.60836 12.4069 9.68115 12.698L9.68115 13.062L9.68115 13.2804C9.68115 13.3532 9.66295 13.4259 9.64476 13.4987C9.62656 13.5715 9.60836 13.6443 9.60836 13.7171C9.53557 13.8627 9.53557 13.9355 9.53557 14.0811C9.89951 14.0083 10.2635 14.0083 10.6274 14.0083L10.6274 14.0083L11.2825 14.0083C11.2098 13.9355 11.2098 13.7899 11.2098 13.7171C11.2098 13.6443 11.1916 13.5715 11.1734 13.4987C11.1552 13.4259 11.137 13.3532 11.137 13.2804L11.137 13.062C11.137 13.0104 11.1278 12.968 11.1193 12.9282C11.1037 12.8557 11.09 12.792 11.137 12.698C11.2098 12.4797 11.5009 12.3341 11.7921 12.3341L12.3016 12.3341C12.5928 12.3341 12.8112 12.2613 12.8839 12.0429C12.9567 11.9701 12.8839 11.9701 12.8839 11.9701C12.8839 11.9701 12.7384 11.8973 12.52 11.8245C12.4472 11.7954 12.3686 11.7692 12.2865 11.7418C11.958 11.6324 11.5737 11.5043 11.2825 11.0966C11.0642 10.8782 10.9914 10.5143 11.0642 10.2231C11.137 9.93197 11.2825 9.71359 11.4281 9.49522L11.4281 9.49521C11.6543 9.22378 11.8805 9.03669 12.0892 8.86406C12.2164 8.75892 12.337 8.65914 12.4472 8.54893C12.6656 8.33055 12.8112 8.03939 12.7384 7.67543C12.7384 7.31148 12.52 7.02031 12.2288 6.87473C12.1564 6.83854 12.0706 6.80685 11.9757 6.77182C11.6888 6.66596 11.3196 6.52969 10.9914 6.14682C10.773 5.85565 10.773 5.4917 10.8458 5.20053C10.9186 4.90937 11.137 4.6182 11.3553 4.47262C11.7921 4.10866 12.3744 4.10866 12.6656 4.10866C12.8839 4.10866 12.9567 4.10866 13.0295 4.03587C13.1023 4.03587 13.1023 3.96308 13.1023 3.96308C13.1023 3.96308 12.8839 3.8175 12.5928 3.74471L11.7193 3.52633C11.6546 3.51709 11.591 3.50784 11.5285 3.49874C11.0988 3.43622 10.7175 3.38075 10.3363 3.38075C9.89952 3.38075 9.38999 3.45354 8.95324 3.52633L8.07975 3.7447C7.7158 3.8175 7.49743 3.96308 7.57022 3.96308L7.64301 4.03587C7.67316 4.03587 7.7158 4.04836 7.76575 4.06299C7.8364 4.08368 7.92168 4.10866 8.00696 4.10866C8.08522 4.12823 8.18452 4.14253 8.29637 4.15865ZM14.7599 18.3199C14.566 18.7283 14.1982 19.0768 13.8303 19.322C12.9955 19.8786 12.0942 20.1027 11.5077 20.2485C11.4805 20.2553 11.454 20.2619 11.4282 20.2683C11.165 20.3341 10.9464 20.3702 10.7859 20.3967C10.5912 20.4288 10.4819 20.4468 10.4819 20.4867C10.4819 20.4139 10.118 20.3411 9.39006 20.2683C9.36426 20.2619 9.33775 20.2553 9.31057 20.2485C8.72404 20.1027 7.82276 19.8786 6.98796 19.322C6.62401 19.0309 6.18726 18.5941 5.96889 18.0846C5.75052 17.5751 5.82331 16.9199 6.26005 16.4104C7.13354 15.3186 8.80773 14.809 10.4091 14.809C10.4332 14.8101 10.4574 14.8112 10.4815 14.8124C10.5059 14.8112 10.5302 14.81 10.5546 14.809C12.156 14.809 13.8302 15.3185 14.7037 16.4104C14.9949 16.8471 15.1405 17.5023 14.9221 18.0118C14.8766 18.1179 14.8217 18.2208 14.7599 18.3199Z" fill="white"/>
</svg>
