<svg width="54" height="93" viewBox="0 0 54 93" fill="none" xmlns="http://www.w3.org/2000/svg">
<path fill-rule="evenodd" clip-rule="evenodd" d="M25.1224 92.2709L18.1655 92.2709C17.5857 92.2709 16.8127 92.2709 16.0397 92.0776L13.914 92.0776C13.141 92.0776 11.9815 91.6911 11.4017 90.7249C10.822 89.7586 10.822 88.9856 10.822 88.2126L10.822 86.0869C10.822 85.5071 10.6287 84.9274 10.4355 84.3476C9.85572 83.3814 9.27597 83.1882 8.30972 83.7679C7.72997 84.1544 7.15022 84.5409 6.57047 85.1206C5.99072 85.7004 5.21772 86.2801 4.05823 86.4734C2.89873 86.6666 1.54598 86.0869 0.966229 85.1206C0.19323 84.1544 -1.88948e-05 83.1882 -1.88526e-05 82.2219C0.36448 73.96 0.347035 66.3092 0.331865 59.6537C0.322904 55.7233 0.314733 52.14 0.386484 48.9829L0.386484 46.0842L0.386484 43.1855C0.314734 40.0284 0.322905 36.4451 0.331866 32.5147C0.347037 25.8592 0.364482 18.2084 -1.56934e-05 9.94651C0.193233 8.98026 0.386486 8.01401 0.966232 7.04776C1.54598 6.08151 2.89873 5.50176 4.05823 5.69501C5.21773 5.88826 5.99073 6.46801 6.57047 7.04776C6.90939 7.30195 7.17401 7.51899 7.4132 7.71517C7.71954 7.96643 7.98416 8.18347 8.30972 8.40051C9.27597 9.17351 9.85572 8.78701 10.4355 7.82076C10.6287 7.24101 10.822 6.66126 10.822 6.08151L10.822 3.95576C10.822 3.18277 10.822 2.40977 11.4017 1.44352C11.9815 0.284019 13.141 0.0907698 13.914 0.0907698C14.446 -0.0422367 14.978 0.00784366 15.447 0.0519931C15.6595 0.0719899 15.859 0.0907699 16.0397 0.0907699L17.9722 0.09077L24.9292 0.0907703L26.6684 0.0907704L28.4077 0.0907705L35.3647 0.0907708L37.2972 0.0907709L39.4229 0.090771C40.1959 0.090771 41.1622 0.47727 41.9352 1.44352C42.5149 2.40977 42.5149 3.18277 42.5149 3.95577L42.5149 6.08151C42.5149 6.66126 42.5149 7.24101 42.7082 7.82076C43.2879 8.78701 43.8677 9.17351 44.8339 8.40051C45.4137 8.20726 45.9934 7.62752 46.5732 7.04777L46.5732 7.04776C47.1529 6.46801 47.9259 5.88826 49.0854 5.69501C50.2449 5.50176 51.5977 6.08151 52.1774 7.04776C52.9504 8.01401 53.1437 8.98026 53.1437 9.94651C52.6736 20.6014 52.7117 30.24 52.7429 38.1411C52.7502 39.9846 52.7572 41.7335 52.7572 43.3787C52.5639 44.345 52.5639 45.3112 52.5639 46.2775C52.7572 47.2437 52.7572 48.21 52.7572 49.1762C52.9314 53.0106 52.9878 57.4737 53.0504 62.4238C53.1265 68.4509 53.2118 75.2 53.5301 82.4152C53.3369 83.3814 53.1436 84.3476 52.5639 85.3139C51.9842 86.2802 50.6314 86.8599 49.4719 86.6666C48.3124 86.4734 47.5394 85.8936 46.9597 85.3139C46.6207 85.0597 46.3561 84.8427 46.117 84.6465C45.8106 84.3952 45.546 84.1782 45.2204 83.9612C44.2542 83.1882 43.6744 83.5747 43.0947 84.5409C42.9014 85.1207 42.7082 85.7004 42.7082 86.2802L42.7082 88.4059C42.7082 89.1789 42.7082 89.9519 42.1284 90.9181C41.5487 92.0776 40.3892 92.2709 39.6162 92.2709C39.0841 92.4039 38.5521 92.3538 38.0831 92.3097C37.8707 92.2897 37.6712 92.2709 37.4904 92.2709L35.5579 92.2709L28.6009 92.2709L26.8617 92.2709L25.1224 92.2709ZM2.65828 54.3291C2.8878 62.1381 3.17192 71.8047 2.70548 82.2219C2.70548 83.7679 3.47847 84.7342 4.44473 84.3476C4.83122 84.3476 5.41097 83.9612 5.99072 83.5747L6.18398 83.3814C5.60423 79.9029 5.21772 64.4429 5.21773 45.891C5.21773 27.9187 5.41098 12.8453 5.99073 8.78701C5.99073 8.59376 5.79748 8.59376 5.79748 8.59376C5.21773 8.20726 4.63798 7.82076 4.25148 7.82076C3.47848 7.62751 2.70548 8.59376 2.70548 9.94651C3.17192 20.3637 2.8878 30.0303 2.65829 37.8393C2.60253 39.7363 2.55 41.5236 2.51223 43.1855L2.51223 46.0842L2.51223 48.9829C2.55 50.6448 2.60253 52.4321 2.65828 54.3291ZM50.8247 43.1855C50.6314 34.8757 50.4382 22.8942 51.0179 10.1398C51.0179 8.59376 50.2449 7.62751 49.4719 7.82076C49.4 7.85673 49.3213 7.8927 49.2372 7.93117C48.8696 8.09935 48.3977 8.31517 47.9259 8.78701C47.7327 8.98026 47.3462 9.36676 46.9597 9.56001C47.3462 13.2318 47.7327 28.112 47.7327 46.0842C47.7327 64.0564 47.5394 79.1299 46.9597 82.8017C47.1861 83.0281 47.4125 83.1882 47.6 83.3208C47.7327 83.4146 47.8459 83.4946 47.9259 83.5747C48.5057 83.9612 49.0854 84.3476 49.4719 84.3476C50.2449 84.5409 51.0179 83.5747 51.0179 82.2219C50.4382 69.2742 50.6314 57.4859 50.8247 48.983L50.8247 46.0842L50.8247 43.1855ZM21.4507 82.6084L23.7697 83.1882L23.7698 83.1882C24.9293 83.3814 26.0887 83.5747 27.2482 83.5747C28.4077 83.5747 29.7604 83.3814 30.9199 83.1882L33.2389 82.6084C34.2052 82.4152 34.7849 82.0287 34.5917 82.0287L34.3984 81.8354C34.3184 81.8354 34.2052 81.8022 34.0726 81.7634C33.885 81.7085 33.6586 81.6422 33.4322 81.6422C33.2244 81.5902 32.9608 81.5522 32.6638 81.5094C31.856 81.3931 30.8015 81.2411 29.9537 80.6759C29.3739 80.0962 28.7942 79.5164 28.6009 78.7434C28.2144 77.9704 28.4077 77.0042 28.9874 76.2312C29.8587 75.2147 30.839 74.8529 31.6006 74.5719C31.8525 74.4789 32.0805 74.3948 32.2727 74.2987C33.0457 73.9122 33.4322 73.1392 33.6254 72.1729C33.8187 71.2067 33.6254 70.4337 32.8524 69.8539C32.5598 69.5613 32.2396 69.2964 31.9021 69.0173C31.348 68.559 30.7475 68.0623 30.1469 67.3417C29.7604 66.7619 29.3739 66.1822 29.1807 65.4092C29.1807 64.6362 29.3739 63.6699 29.7604 63.0902C30.5334 62.008 31.5538 61.6679 32.4257 61.3772C32.6437 61.3046 32.8524 61.235 33.0457 61.1577C33.4322 60.9644 34.0119 60.7712 34.0119 60.7712L34.0119 60.5779C33.8187 59.9982 33.4322 59.8049 32.4659 59.8049L31.1132 59.8049C30.3402 59.8049 29.5672 59.6117 29.3739 58.8387L29.3739 57.8724L29.3739 57.2927C29.3739 57.0994 29.4223 56.9062 29.4706 56.7129C29.5189 56.5197 29.5672 56.3264 29.5672 56.1332L29.5672 55.5534L27.8279 55.5534C26.8617 55.5534 25.8954 55.5534 24.9292 55.3602C25.1224 55.5534 25.1224 55.9399 25.1224 56.1332C25.1224 56.3264 25.1708 56.5197 25.2191 56.7129C25.2674 56.9062 25.3157 57.0994 25.3157 57.2927L25.3157 57.8724C25.3157 58.0094 25.3399 58.122 25.3627 58.2276C25.4041 58.4201 25.4405 58.5891 25.3157 58.8387C25.1224 59.4184 24.3494 59.8049 23.5764 59.8049L22.2237 59.8049C21.4507 59.8049 20.8709 59.9982 20.6777 60.5779C20.4845 60.7712 20.6777 60.7712 20.6777 60.7712C20.6777 60.7712 21.0642 60.9644 21.644 61.1577C21.8372 61.235 22.0459 61.3046 22.2639 61.3772C23.1358 61.6679 24.1562 62.008 24.9292 63.0902C25.5089 63.6699 25.7022 64.6362 25.5089 65.4092C25.3157 66.1822 24.9292 66.7619 24.5427 67.3417C23.9422 68.0623 23.3417 68.559 22.7875 69.0173C22.4501 69.2964 22.1298 69.5613 21.8372 69.8539C21.2574 70.4337 20.8709 71.2067 21.0642 72.1729C21.0642 73.1392 21.6439 73.9122 22.4169 74.2987C22.6091 74.3948 22.8371 74.4789 23.0891 74.5719C23.8506 74.8529 24.8309 75.2147 25.7022 76.2312C26.2819 77.0042 26.2819 77.9704 26.0887 78.7434C25.8954 79.5164 25.3157 80.2894 24.7359 80.6759C23.5764 81.6422 22.0304 81.6422 21.2574 81.6422C20.6777 81.6422 20.4844 81.6422 20.2912 81.8354C20.098 81.8354 20.098 82.0287 20.098 82.0287C20.098 82.0287 20.6777 82.4152 21.4507 82.6084ZM22.0258 11.0455C22.8336 11.1619 23.8881 11.3138 24.7359 11.879C25.3157 12.2655 25.8954 12.8453 26.0887 13.6183C26.2819 14.3913 26.2819 15.3575 26.0887 16.3237C25.2174 17.3402 24.2371 17.702 23.4755 17.983C23.2236 18.076 22.9956 18.1602 22.8035 18.2562C22.0305 18.6427 21.644 19.4157 21.4507 20.382C21.2575 21.3482 21.4507 22.1212 22.2237 22.701C22.5163 22.9936 22.8366 23.2585 23.174 23.5376C23.7282 23.9959 24.3287 24.4926 24.9292 25.2132C25.3157 25.793 25.7022 26.3727 25.8954 27.1457C25.8954 27.9187 25.7022 28.885 25.3157 29.4647C24.5427 30.5469 23.5223 30.887 22.6504 31.1777C22.4324 31.2504 22.2237 31.3199 22.0304 31.3972C21.6439 31.5905 21.0642 31.7837 21.0642 31.7837L21.0642 31.977C21.2574 32.5567 21.644 32.75 22.6102 32.75L23.9629 32.75C24.7359 32.75 25.5089 32.9432 25.7022 33.7162L25.7022 34.6825L25.7022 35.2622C25.7022 35.4555 25.6539 35.6487 25.6056 35.842C25.5573 36.0352 25.5089 36.2285 25.5089 36.4217C25.3157 36.8082 25.3157 37.0015 25.3157 37.388C26.2819 37.1947 27.2482 37.1947 28.2144 37.1947L28.2144 37.1947L29.9537 37.1947C29.7604 37.0015 29.7604 36.615 29.7604 36.4217C29.7604 36.2285 29.7121 36.0352 29.6638 35.842C29.6155 35.6487 29.5672 35.4555 29.5672 35.2622L29.5672 34.6825C29.5672 34.5456 29.5429 34.4329 29.5202 34.3273C29.4788 34.1348 29.4424 33.9658 29.5672 33.7162C29.7604 33.1365 30.5334 32.75 31.3064 32.75L32.6592 32.75C33.4322 32.75 34.0119 32.5567 34.2052 31.977C34.3984 31.7837 34.2052 31.7837 34.2052 31.7837C34.2052 31.7837 33.8187 31.5905 33.2389 31.3972C33.0457 31.3199 32.837 31.2504 32.619 31.1777C31.747 30.887 30.7267 30.5469 29.9537 29.4647C29.3739 28.885 29.1807 27.9187 29.3739 27.1457C29.5672 26.3727 29.9537 25.793 30.3402 25.2132C30.9407 24.4926 31.5412 23.9959 32.0953 23.5376C32.4328 23.2585 32.7531 22.9936 33.0457 22.701C33.6254 22.1212 34.0119 21.3482 33.8187 20.382C33.8187 19.4157 33.2389 18.6427 32.4659 18.2562C32.2738 18.1602 32.0458 18.076 31.7938 17.983C31.0323 17.702 30.0519 17.3402 29.1807 16.3237C28.6009 15.5507 28.6009 14.5845 28.7942 13.8115C28.9874 13.0385 29.5672 12.2655 30.1469 11.879C31.3064 10.9128 32.8524 10.9128 33.6254 10.9128C34.2052 10.9128 34.3984 10.9128 34.5917 10.7195C34.7849 10.7195 34.7849 10.5263 34.7849 10.5263C34.7849 10.5263 34.2052 10.1398 33.4322 9.94651L31.1132 9.36676C30.9414 9.34221 30.7727 9.31767 30.6067 9.29352C29.4659 9.12753 28.4537 8.98026 27.4414 8.98026C26.2819 8.98026 24.9292 9.17351 23.7697 9.36676L21.4507 9.94651C20.4845 10.1398 19.9047 10.5263 20.098 10.5263L20.2912 10.7195C20.3712 10.7195 20.4845 10.7527 20.6171 10.7915C20.8046 10.8464 21.031 10.9128 21.2574 10.9128C21.4652 10.9647 21.7288 11.0027 22.0258 11.0455ZM39.1839 48.6442C38.6688 49.7269 37.6932 50.651 36.7175 51.3014C34.5012 52.7789 32.1085 53.3739 30.5513 53.7611C30.4791 53.779 30.4087 53.7965 30.3403 53.8136C29.6415 53.9883 29.0611 54.0841 28.6349 54.1544C28.1182 54.2396 27.828 54.2875 27.828 54.3934C27.828 54.2001 26.8618 54.0069 24.9293 53.8136C24.8608 53.7965 24.7904 53.779 24.7182 53.7611C23.1611 53.3739 20.7683 52.7789 18.552 51.3014C17.5858 50.5284 16.4263 49.3689 15.8465 48.0162C15.2668 46.6634 15.46 44.9242 16.6195 43.5714C18.9385 40.6727 23.3833 39.3199 27.6348 39.3199C27.7009 39.3228 27.7671 39.3259 27.8333 39.3293C27.8959 39.3261 27.9586 39.3232 28.0212 39.3205C32.2727 39.3205 36.7174 40.6732 39.0364 43.572C39.8094 44.7315 40.1959 46.4707 39.6162 47.8235C39.4951 48.1061 39.3486 48.3802 39.1839 48.6442Z" fill="#FF7A00"/>
</svg>
