<svg width="177" height="54" viewBox="0 0 177 54" fill="none" xmlns="http://www.w3.org/2000/svg">
<path d="M32.4738 39.869C31.7366 44.056 29.6767 47.3876 26.2942 49.8638C22.9117 52.34 19.0305 53.5556 14.6506 53.5106C14.3471 53.5106 14.0435 53.5106 13.74 53.5106C13.4798 53.5106 13.1979 53.4881 12.8943 53.443C12.7209 53.443 12.5257 53.4205 12.3089 53.3755C12.1355 53.3755 11.9403 53.353 11.7235 53.308C9.55522 53.0829 7.47368 52.6326 5.47888 51.9573C3.48407 51.282 2.03134 50.1114 1.12067 48.4456C1.03393 48.3106 0.968887 48.0629 0.925522 47.7028C0.882156 47.2976 0.860474 46.8699 0.860474 46.4196C0.860474 46.0595 0.860474 45.7218 0.860474 45.4067C0.903839 45.0915 0.947204 44.8439 0.990569 44.6638C1.2074 43.8984 1.85788 43.2681 2.94201 42.7729C4.06951 42.2776 5.26205 42.03 6.51965 42.03C6.60638 42.03 6.69311 42.03 6.77984 42.03C6.90993 42.03 7.01835 42.03 7.10508 42.03C8.75296 42.1201 10.0322 42.6153 10.9429 43.5157C11.8536 44.4162 12.5257 45.3841 12.9594 46.4196C13.0895 46.7348 13.1979 47.0499 13.2846 47.3651C13.3714 47.6802 13.4581 47.9729 13.5448 48.243C13.6749 48.8283 13.8917 49.256 14.1953 49.5261C14.5422 49.7513 14.9325 49.8638 15.3662 49.8638C15.5396 49.8638 15.7131 49.8413 15.8866 49.7963C16.1034 49.7513 16.2985 49.7062 16.472 49.6612C17.2092 49.3461 17.8814 48.8058 18.4885 48.0404C19.139 47.2751 19.4642 46.4422 19.4642 45.5417C19.4208 45.2716 19.3558 45.024 19.269 44.7989C19.2257 44.5287 19.1606 44.2811 19.0739 44.056C18.5102 42.6153 17.5128 41.1971 16.0817 39.8014C14.6506 38.4058 13.1112 37.0326 11.4633 35.6819C10.8562 35.1417 10.2274 34.6239 9.5769 34.1287C8.92642 33.5884 8.31931 33.0707 7.75556 32.5755C5.84748 30.9547 4.30802 28.8161 3.13715 26.1599C2.00965 23.4585 1.38086 20.6897 1.25076 17.8533C1.25076 17.7183 1.25076 17.5832 1.25076 17.4481C1.25076 17.2681 1.25076 17.1105 1.25076 16.9754C1.25076 12.8334 2.55172 9.0966 5.15364 5.76499C7.79892 2.43338 12.1571 0.767578 18.2283 0.767578C18.9221 0.767578 19.6593 0.835111 20.4399 0.970177C21.2639 1.06022 22.0878 1.2178 22.9117 1.4429C25.0366 2.02819 26.9881 2.90611 28.7661 4.07668C30.544 5.24724 31.433 6.53036 31.433 7.92604C31.433 9.00656 30.8693 9.88448 29.7418 10.5598C28.6143 11.2351 27.3784 11.5953 26.034 11.6403C25.9907 11.6403 25.9256 11.6403 25.8389 11.6403C25.7955 11.6403 25.7522 11.6403 25.7088 11.6403C24.7981 11.6403 23.9525 11.4828 23.1719 11.1676C22.3913 10.8525 21.7842 10.3347 21.3506 9.61435C21.2205 9.38924 21.1121 9.16413 21.0253 8.93903C20.9386 8.6689 20.8736 8.42128 20.8302 8.19617C20.8302 8.10612 20.8085 8.03859 20.7652 7.99357C20.7652 7.90353 20.7435 7.81348 20.7001 7.72344C20.6567 7.40829 20.5917 7.11565 20.505 6.84551C20.4182 6.53036 20.2881 6.26023 20.1147 6.03512C19.8111 5.67495 19.3991 5.40482 18.8788 5.22473C18.4017 5.04464 17.8814 4.9546 17.3176 4.9546C17.2742 4.9546 17.2309 4.9546 17.1875 4.9546C17.1875 4.9546 17.1658 4.9546 17.1225 4.9546C15.9082 4.99962 14.8675 5.42733 14.0002 6.23772C13.1762 7.00309 13.2413 7.88102 14.1953 8.8715C14.282 8.96154 14.3688 9.05158 14.4555 9.14163C14.5422 9.23167 14.6506 9.32171 14.7807 9.41176C16.4286 11.0776 18.0548 12.6758 19.6593 14.2066C21.2639 15.6923 22.7816 17.1555 24.2127 18.5962C26.6845 21.2075 28.7227 23.8862 30.3272 26.6326C31.9751 29.3339 32.799 32.4629 32.799 36.0196C32.799 36.6049 32.7773 37.2352 32.734 37.9105C32.6906 38.5408 32.6039 39.1936 32.4738 39.869Z" fill="#FF7A00"/>
<path d="M81.4793 50.0664C81.4793 50.6067 81.1974 51.0569 80.6337 51.4171C80.0699 51.8223 79.4194 52.0248 78.6822 52.0248L61.1193 52.0924C60.2953 52.0474 59.6232 51.8223 59.1028 51.4171C58.5824 51.0569 58.3222 50.5842 58.3222 49.9989C58.3222 49.5487 58.5824 49.1209 59.1028 48.7158C59.6232 48.3106 60.2953 48.108 61.1193 48.108L61.4445 47.7028V24.8767H52.9883V47.7703L53.5737 48.1755C54.3109 48.1755 54.9614 48.3781 55.5252 48.7833C56.0889 49.1885 56.3708 49.6162 56.3708 50.0664C56.3708 50.6517 56.0889 51.1244 55.5252 51.4846C54.9614 51.8898 54.3109 52.0924 53.5737 52.0924L36.0108 52.1599C35.1868 52.1149 34.5147 51.8898 33.9943 51.4846C33.4739 51.1244 33.2137 50.6517 33.2137 50.0664C33.2137 49.6162 33.4739 49.1885 33.9943 48.7833C34.5147 48.3781 35.1868 48.1755 36.0108 48.1755L36.4661 47.7703V6.57539L35.9457 6.17019C35.1651 6.17019 34.493 5.9901 33.9292 5.62993C33.4088 5.26975 33.1487 4.79703 33.1487 4.21174C33.1487 3.67148 33.4088 3.22126 33.9292 2.86109C34.493 2.4559 35.1651 2.2533 35.9457 2.2533H53.5087C54.2892 2.2533 54.9397 2.4559 55.4601 2.86109C56.0239 3.22126 56.3057 3.67148 56.3057 4.21174C56.3057 4.79703 56.0239 5.26975 55.4601 5.62993C54.9397 5.9901 54.2892 6.17019 53.5087 6.17019L52.9883 6.57539V21.5001H61.4445V6.50785L60.9241 6.17019C60.2303 6.17019 59.6015 5.9901 59.0377 5.62993C58.474 5.26975 58.1921 4.79703 58.1921 4.21174C58.1921 3.62646 58.474 3.15373 59.0377 2.79356C59.6015 2.43338 60.2303 2.2533 60.9241 2.2533H78.4871C79.311 2.2533 79.9832 2.43338 80.5036 2.79356C81.024 3.15373 81.2841 3.62646 81.2841 4.21174C81.2841 4.79703 81.024 5.26975 80.5036 5.62993C79.9832 5.9901 79.311 6.17019 78.4871 6.17019L78.0318 6.50785V47.7028L78.6822 48.108C79.4194 48.108 80.0699 48.3106 80.6337 48.7158C81.1974 49.1209 81.4793 49.5487 81.4793 49.9989V50.0664Z" fill="#FF7A00"/>
<path d="M130.16 27.1053C130.16 34.3088 128.013 40.4768 123.72 45.6093C119.427 50.7417 114.245 53.308 108.174 53.308C102.059 53.308 96.8555 50.7417 92.5624 45.6093C88.2692 40.4768 86.1226 34.3088 86.1226 27.1053C86.1226 19.8118 88.2692 13.5988 92.5624 8.4663C96.8555 3.33382 102.059 0.767578 108.174 0.767578C114.245 0.767578 119.427 3.33382 123.72 8.4663C128.013 13.5988 130.16 19.8118 130.16 27.1053ZM112.532 46.2846C112.532 46.0595 112.445 45.8794 112.272 45.7443C112.142 45.5642 111.99 45.4067 111.817 45.2716C111.6 45.1365 111.405 44.9789 111.231 44.7989C111.101 44.6188 111.036 44.4387 111.036 44.2586V8.12864C111.036 7.27322 110.646 6.64292 109.865 6.23772C109.128 5.83253 108.282 5.62993 107.328 5.62993C107.285 5.62993 107.242 5.62993 107.198 5.62993C107.198 5.62993 107.176 5.62993 107.133 5.62993C106.309 5.67495 105.529 5.90006 104.791 6.30526C104.098 6.71045 103.751 7.31825 103.751 8.12864C103.751 8.21868 103.772 8.33123 103.816 8.4663C103.859 8.55634 103.924 8.64639 104.011 8.73643C104.054 8.82647 104.119 8.93903 104.206 9.07409C104.336 9.16414 104.444 9.25418 104.531 9.34422C104.748 9.52431 104.921 9.68189 105.052 9.81695C105.225 9.95202 105.312 10.0196 105.312 10.0196V46.3521C105.312 47.0725 105.68 47.6352 106.418 48.0404C107.155 48.4006 107.957 48.6032 108.824 48.6482C108.868 48.6482 108.889 48.6482 108.889 48.6482C108.933 48.6482 108.976 48.6482 109.019 48.6482C109.93 48.6482 110.732 48.4681 111.426 48.108C112.163 47.7028 112.532 47.095 112.532 46.2846Z" fill="#FF7A00"/>
<path d="M176.674 18.9339C176.674 23.4811 174.94 27.3979 171.471 30.6845C168.001 33.9711 163.838 35.6144 158.981 35.6144H151.696V47.7028L152.412 48.108C153.149 48.108 153.799 48.3106 154.363 48.7158C154.927 49.1209 155.209 49.5487 155.209 49.9989C155.209 50.5842 154.927 51.0794 154.363 51.4846C153.799 51.8898 153.149 52.0924 152.412 52.0924L134.849 52.1599C134.025 52.1149 133.352 51.8898 132.832 51.4846C132.355 51.0794 132.117 50.5842 132.117 49.9989C132.117 49.5487 132.355 49.1209 132.832 48.7158C133.352 48.3106 134.025 48.108 134.849 48.108L135.434 47.7028V6.57539L134.784 6.17019C134.003 6.17019 133.331 5.9901 132.767 5.62993C132.247 5.22473 131.986 4.72949 131.986 4.14421C131.986 3.60395 132.247 3.13122 132.767 2.72602C133.331 2.32083 134.003 2.11823 134.784 2.11823H159.046C163.903 2.11823 168.045 3.76152 171.471 7.04811C174.94 10.3347 176.674 14.2966 176.674 18.9339ZM157.745 28.9962V9.20916C157.745 8.35374 157.355 7.72344 156.575 7.31824C155.837 6.91305 155.013 6.71045 154.103 6.71045C153.192 6.71045 152.368 6.93556 151.631 7.38578C150.894 7.79097 150.525 8.39877 150.525 9.20916C150.525 9.38925 150.59 9.54682 150.72 9.68189C150.85 9.81695 151.002 9.95202 151.176 10.0871C151.219 10.0871 151.241 10.0871 151.241 10.0871C151.241 10.0871 151.262 10.1096 151.306 10.1546C151.479 10.2897 151.631 10.4247 151.761 10.5598C151.935 10.6949 152.021 10.875 152.021 11.1001V26.8352C152.021 27.0153 151.935 27.1954 151.761 27.3754C151.631 27.5555 151.479 27.7131 151.306 27.8482C151.089 27.9832 150.894 28.1408 150.72 28.3209C150.59 28.456 150.525 28.636 150.525 28.8612C150.525 29.7166 150.894 30.3469 151.631 30.7521C152.368 31.1122 153.17 31.2923 154.038 31.2923C154.081 31.2923 154.103 31.2923 154.103 31.2923C154.146 31.2923 154.19 31.2923 154.233 31.2923C155.1 31.2473 155.902 31.0222 156.64 30.617C157.377 30.2118 157.745 29.6715 157.745 28.9962Z" fill="#FF7A00"/>
</svg>
