<svg width="14" height="18" viewBox="0 0 14 18" fill="none" xmlns="http://www.w3.org/2000/svg">
<path d="M6.83316 17.144C5.53716 17.144 4.37716 16.8 3.35316 16.112C2.34516 15.424 1.55316 14.44 0.97716 13.16C0.41716 11.864 0.13716 10.344 0.13716 8.6C0.13716 6.856 0.41716 5.344 0.97716 4.064C1.55316 2.768 2.34516 1.776 3.35316 1.088C4.37716 0.399999 5.53716 0.0559993 6.83316 0.0559993C8.12916 0.0559993 9.28116 0.399999 10.2892 1.088C11.3132 1.776 12.1132 2.768 12.6892 4.064C13.2652 5.344 13.5532 6.856 13.5532 8.6C13.5532 10.344 13.2652 11.864 12.6892 13.16C12.1132 14.44 11.3132 15.424 10.2892 16.112C9.28116 16.8 8.12916 17.144 6.83316 17.144ZM6.83316 15.56C7.80916 15.56 8.66516 15.288 9.40116 14.744C10.1532 14.2 10.7372 13.408 11.1532 12.368C11.5692 11.328 11.7772 10.072 11.7772 8.6C11.7772 7.128 11.5692 5.872 11.1532 4.832C10.7372 3.792 10.1532 3 9.40116 2.456C8.66516 1.912 7.80916 1.64 6.83316 1.64C5.85716 1.64 4.99316 1.912 4.24116 2.456C3.50516 3 2.92916 3.792 2.51316 4.832C2.09716 5.872 1.88916 7.128 1.88916 8.6C1.88916 10.072 2.09716 11.328 2.51316 12.368C2.92916 13.408 3.50516 14.2 4.24116 14.744C4.99316 15.288 5.85716 15.56 6.83316 15.56Z" fill="white"/>
</svg>
