<svg width="177" height="31" viewBox="0 0 177 31" fill="none" xmlns="http://www.w3.org/2000/svg">
<path d="M21.7492 12.492C24.4813 13.0472 26.5238 14.1312 27.8766 15.7439C29.2294 17.3302 29.9323 19.0223 29.9853 20.8201C29.9853 20.8465 29.9853 20.873 29.9853 20.8994C29.9853 20.9258 29.9853 20.9523 29.9853 20.9787C29.9588 23.1466 29.0172 25.1295 27.1604 26.9273C25.3301 28.7251 22.6378 29.624 19.0834 29.624L2.53157 29.6636C2.00106 29.6372 1.58992 29.5182 1.29814 29.3067C1.03289 29.0952 0.886999 28.8573 0.860474 28.5929C0.860474 28.5665 0.860474 28.54 0.860474 28.5136C0.860474 28.5136 0.860474 28.5004 0.860474 28.4739C0.860474 28.2095 1.00636 27.9584 1.29814 27.7204C1.61645 27.4561 2.06738 27.3239 2.65094 27.3239L2.96924 27.0463V2.6967C2.38568 2.6967 1.92149 2.57772 1.57666 2.33978C1.25835 2.10184 1.07268 1.83745 1.01963 1.54663C0.993101 1.5202 0.979838 1.49376 0.979838 1.46732C0.979838 1.41444 0.979838 1.37478 0.979838 1.34835C0.979838 1.08397 1.0992 0.85924 1.33793 0.674172C1.60318 0.462668 1.9878 0.356916 2.49178 0.356916H20.0781C22.9959 0.356916 25.2108 1.00465 26.7227 2.30012C28.2347 3.56916 28.9906 4.9836 28.9906 6.54345C28.9906 7.8918 28.3938 9.14762 27.2002 10.3109C26.0065 11.4477 24.1895 12.1748 21.7492 12.492ZM17.7306 25.8566V15.506C17.7306 15.0037 17.4919 14.6335 17.0144 14.3956C16.5635 14.1577 16.0595 14.0387 15.5025 14.0387C14.9454 14.0387 14.4415 14.1709 13.9905 14.4353C13.5396 14.6732 13.3141 15.0301 13.3141 15.506C13.3141 15.6118 13.3539 15.7043 13.4335 15.7836C13.5131 15.8629 13.6059 15.9422 13.712 16.0215C13.712 16.0215 13.712 16.0348 13.712 16.0612C13.7385 16.0612 13.7518 16.0612 13.7518 16.0612C13.8844 16.1405 13.9905 16.233 14.0701 16.3388C14.1762 16.4181 14.2293 16.5239 14.2293 16.6561V24.6272C14.2293 24.7329 14.1762 24.8387 14.0701 24.9444C13.9905 25.0502 13.8977 25.1427 13.7916 25.222C13.7651 25.222 13.7385 25.2353 13.712 25.2617C13.6059 25.341 13.5131 25.4203 13.4335 25.4996C13.3539 25.5789 13.3141 25.6715 13.3141 25.7772C13.3141 26.2796 13.5396 26.6497 13.9905 26.8876C14.4415 27.0991 14.9322 27.2049 15.4627 27.2049C15.4892 27.2049 15.5025 27.2049 15.5025 27.2049C15.529 27.2049 15.5555 27.2049 15.5821 27.2049C16.1126 27.1785 16.6033 27.0463 17.0542 26.8083C17.5051 26.5704 17.7306 26.2531 17.7306 25.8566ZM17.7306 10.1523V4.20367C17.7306 3.70135 17.4919 3.33121 17.0144 3.09327C16.5635 2.85532 16.0595 2.73635 15.5025 2.73635C14.9454 2.73635 14.4415 2.86854 13.9905 3.13293C13.5396 3.37087 13.3141 3.72778 13.3141 4.20367C13.3141 4.30943 13.3539 4.40196 13.4335 4.48127C13.5131 4.56059 13.6059 4.6399 13.712 4.71922C13.7385 4.71922 13.7518 4.71922 13.7518 4.71922C13.7518 4.71922 13.7651 4.73244 13.7916 4.75887C13.8977 4.83819 13.9905 4.9175 14.0701 4.99682C14.1762 5.07613 14.2293 5.18189 14.2293 5.31408V8.92289C14.2293 9.02864 14.1895 9.12117 14.1099 9.20049C14.0303 9.2798 13.9375 9.35912 13.8314 9.43843C13.8314 9.43843 13.8181 9.45165 13.7916 9.47809C13.659 9.5574 13.5396 9.64994 13.4335 9.75569C13.3539 9.83501 13.3141 9.94076 13.3141 10.073C13.3141 10.5753 13.5396 10.9454 13.9905 11.1834C14.4415 11.3949 14.9322 11.5006 15.4627 11.5006C15.4892 11.5006 15.5025 11.5006 15.5025 11.5006C15.529 11.5006 15.5555 11.5006 15.5821 11.5006C16.1126 11.4742 16.6033 11.342 17.0542 11.104C17.5051 10.8661 17.7306 10.5488 17.7306 10.1523Z" fill="#FF7A00"/>
<path d="M60.8484 28.5136C60.8484 28.778 60.676 29.0159 60.3312 29.2274C60.0129 29.4654 59.6548 29.5976 59.2569 29.624C59.2304 29.624 59.2038 29.624 59.1773 29.624C59.1773 29.624 59.1641 29.624 59.1375 29.624L47.4398 29.6636C47.4398 29.6372 47.347 29.5843 47.1613 29.505C47.0022 29.4521 46.8165 29.386 46.6043 29.3067C46.3656 29.201 46.1534 29.0688 45.9677 28.9102C45.8085 28.778 45.729 28.6326 45.729 28.4739C45.729 28.1831 45.8881 27.9319 46.2064 27.7204C46.5512 27.4825 46.9624 27.3635 47.4398 27.3635H48.3948L47.5592 23.834H40.4769L39.5618 27.3635H40.5167C40.9677 27.3635 41.3655 27.4693 41.7104 27.6808C42.0552 27.8923 42.2276 28.1567 42.2276 28.4739C42.2276 28.7648 42.0552 29.0291 41.7104 29.2671C41.3655 29.505 40.9677 29.624 40.5167 29.624L34.5087 29.6636C34.4292 29.6372 34.3098 29.5976 34.1506 29.5447C34.018 29.5182 33.8721 29.4654 33.713 29.386C33.4742 29.2803 33.262 29.1481 33.0764 28.9895C32.8907 28.8308 32.7978 28.659 32.7978 28.4739C32.7978 28.1567 32.9703 27.8923 33.3151 27.6808C33.6599 27.4693 34.0578 27.3635 34.5087 27.3635H35.5034L41.7899 2.61738H40.3178C39.8403 2.61738 39.4292 2.51163 39.0844 2.30012C38.7661 2.06218 38.6069 1.78458 38.6069 1.46732C38.6069 1.15006 38.7661 0.885678 39.0844 0.674172C39.4292 0.462668 39.8403 0.356916 40.3178 0.356916H51.1003C51.5778 0.356916 51.9757 0.462668 52.294 0.674172C52.6388 0.885678 52.8112 1.15006 52.8112 1.46732L58.7794 27.3635H59.1375C59.615 27.3635 60.0129 27.4825 60.3312 27.7204C60.676 27.9319 60.8484 28.1831 60.8484 28.4739V28.5136ZM47.042 21.7322L44.7343 11.6989C44.7077 11.5403 44.6282 11.4213 44.4955 11.342C44.3894 11.2627 44.2701 11.223 44.1374 11.223C44.1109 11.223 44.0844 11.223 44.0579 11.223C44.0579 11.223 44.0446 11.2362 44.0181 11.2627C43.912 11.2891 43.8059 11.342 43.6998 11.4213C43.6202 11.5006 43.5671 11.5931 43.5406 11.6989L40.9942 21.7322H47.042Z" fill="#FF7A00"/>
<path d="M88.2869 28.4343C88.2869 28.6458 88.1808 28.8441 87.9686 29.0291C87.7564 29.2142 87.5177 29.3596 87.2525 29.4654C87.1198 29.5182 87.0005 29.5579 86.8944 29.5843C86.7883 29.6108 86.6822 29.624 86.5761 29.624C85.2763 29.624 83.9898 29.624 82.7166 29.624C81.4434 29.624 80.1702 29.624 78.897 29.624C77.8625 29.624 77.1463 29.2274 76.7484 28.4343C76.3505 27.6676 76.1118 26.8083 76.0322 25.8566C76.0057 25.5657 75.9792 25.2749 75.9526 24.9841C75.9526 24.6933 75.9526 24.4157 75.9526 24.1513C75.9526 23.9927 75.9526 23.834 75.9526 23.6754C75.9526 23.5168 75.9659 23.3714 75.9924 23.2392C75.9924 23.107 75.9924 22.988 75.9924 22.8823C75.9924 22.7501 75.9924 22.6311 75.9924 22.5253C75.9924 21.4149 75.6343 20.7011 74.9182 20.3838C74.2285 20.0666 73.2603 19.9212 72.0136 19.9476V27.0463L72.4513 27.2842C72.9022 27.2842 73.3001 27.4032 73.6449 27.6411C73.9898 27.8791 74.1622 28.1302 74.1622 28.3946C74.1622 28.7383 73.9898 29.0291 73.6449 29.2671C73.3001 29.505 72.9022 29.624 72.4513 29.624L61.7483 29.6636C61.2443 29.6372 60.8332 29.505 60.5149 29.2671C60.1966 29.0291 60.0374 28.7383 60.0374 28.3946C60.0374 28.1302 60.1966 27.8791 60.5149 27.6411C60.8332 27.4032 61.2443 27.2842 61.7483 27.2842L62.0666 27.0463V2.89498C61.9605 2.84211 61.8544 2.78923 61.7483 2.73635C61.6422 2.68348 61.5228 2.64382 61.3902 2.61738C61.3637 2.59094 61.3239 2.57772 61.2709 2.57772C61.2178 2.55129 61.1648 2.53807 61.1117 2.53807C60.8199 2.43231 60.5547 2.32656 60.3159 2.22081C60.1037 2.08862 59.9976 1.83745 59.9976 1.46732C59.9976 1.15006 60.1568 0.885678 60.4751 0.674172C60.7934 0.43623 61.1913 0.317259 61.6687 0.317259H76.4699C79.7325 0.317259 82.2922 1.30869 84.149 3.29155C86.0323 5.27442 87.0535 7.45557 87.2127 9.83501C87.2392 9.9672 87.2525 10.0994 87.2525 10.2316C87.2525 10.3373 87.2525 10.4563 87.2525 10.5885C87.2525 12.5185 86.6291 14.3031 85.3824 15.9422C84.1623 17.5814 82.2259 18.6389 79.5734 19.1148V19.3924L81.2842 19.7493C81.4434 19.7758 81.6026 19.8154 81.7617 19.8683C81.9474 19.9212 82.1331 19.9873 82.3187 20.0666C83.2206 20.3838 84.0562 20.8465 84.8254 21.4546C85.5946 22.0362 86.0455 22.6443 86.1782 23.2788C86.2047 23.3317 86.218 23.3846 86.218 23.4375C86.218 23.4903 86.218 23.5432 86.218 23.5961C86.218 23.649 86.2047 23.7415 86.1782 23.8737C86.1782 24.0059 86.1782 24.1645 86.1782 24.3496C86.1782 24.5082 86.1649 24.6801 86.1384 24.8651C86.1384 25.0237 86.1384 25.1956 86.1384 25.3807C86.1384 25.4071 86.1384 25.4335 86.1384 25.46C86.1384 25.4864 86.1384 25.5129 86.1384 25.5393C86.1384 25.9623 86.1649 26.3457 86.218 26.6894C86.271 27.0331 86.3904 27.2313 86.5761 27.2842C86.6291 27.3106 86.6689 27.3371 86.6954 27.3635C86.7485 27.3635 86.8015 27.3635 86.8546 27.3635C87.2259 27.4957 87.5575 27.6411 87.8493 27.7998C88.1411 27.9584 88.2869 28.1567 88.2869 28.3946V28.4343ZM75.7139 16.0612V4.48127C75.7139 3.97895 75.4752 3.60881 74.9977 3.37087C74.5468 3.13292 74.0428 3.01395 73.4858 3.01395C72.9288 3.01395 72.4248 3.14614 71.9738 3.41053C71.5229 3.64847 71.2974 4.00538 71.2974 4.48127C71.2974 4.58703 71.3372 4.67956 71.4168 4.75887C71.4964 4.83819 71.5892 4.9175 71.6953 4.99682C71.6953 4.99682 71.6953 5.01004 71.6953 5.03647C71.7219 5.03647 71.7351 5.03647 71.7351 5.03647C71.8677 5.11579 71.9738 5.20832 72.0534 5.31408C72.1595 5.39339 72.2126 5.49914 72.2126 5.63134V14.7922C72.2126 14.8979 72.1595 15.0037 72.0534 15.1094C71.9738 15.2152 71.881 15.3077 71.7749 15.387C71.6423 15.4663 71.5229 15.5589 71.4168 15.6646C71.3372 15.7439 71.2974 15.8497 71.2974 15.9819C71.2974 16.4842 71.5229 16.8543 71.9738 17.0923C72.4248 17.3038 72.9155 17.4095 73.446 17.4095C73.4725 17.4095 73.4858 17.4095 73.4858 17.4095C73.5123 17.4095 73.5388 17.4095 73.5654 17.4095C74.0959 17.3831 74.5866 17.2509 75.0375 17.013C75.4885 16.775 75.7139 16.4578 75.7139 16.0612Z" fill="#FF7A00"/>
<path d="M112.049 12.492C114.782 13.0472 116.824 14.1312 118.177 15.7439C119.53 17.3302 120.233 19.0223 120.286 20.8201C120.286 20.8465 120.286 20.873 120.286 20.8994C120.286 20.9258 120.286 20.9523 120.286 20.9787C120.259 23.1466 119.317 25.1295 117.461 26.9273C115.63 28.7251 112.938 29.624 109.384 29.624L92.8318 29.6636C92.3013 29.6372 91.8901 29.5182 91.5984 29.3067C91.3331 29.0952 91.1872 28.8573 91.1607 28.5929C91.1607 28.5665 91.1607 28.54 91.1607 28.5136C91.1607 28.5136 91.1607 28.5004 91.1607 28.4739C91.1607 28.2095 91.3066 27.9584 91.5984 27.7204C91.9167 27.4561 92.3676 27.3239 92.9512 27.3239L93.2695 27.0463V2.6967C92.6859 2.6967 92.2217 2.57772 91.8769 2.33978C91.5586 2.10184 91.3729 1.83745 91.3199 1.54663C91.2933 1.5202 91.2801 1.49376 91.2801 1.46732C91.2801 1.41444 91.2801 1.37478 91.2801 1.34835C91.2801 1.08397 91.3994 0.85924 91.6382 0.674172C91.9034 0.462668 92.288 0.356916 92.792 0.356916H110.378C113.296 0.356916 115.511 1.00465 117.023 2.30012C118.535 3.56916 119.291 4.9836 119.291 6.54345C119.291 7.8918 118.694 9.14762 117.5 10.3109C116.307 11.4477 114.49 12.1748 112.049 12.492ZM108.031 25.8566V15.506C108.031 15.0037 107.792 14.6335 107.315 14.3956C106.864 14.1577 106.36 14.0387 105.803 14.0387C105.246 14.0387 104.742 14.1709 104.291 14.4353C103.84 14.6732 103.614 15.0301 103.614 15.506C103.614 15.6118 103.654 15.7043 103.734 15.7836C103.813 15.8629 103.906 15.9422 104.012 16.0215C104.012 16.0215 104.012 16.0348 104.012 16.0612C104.039 16.0612 104.052 16.0612 104.052 16.0612C104.185 16.1405 104.291 16.233 104.37 16.3388C104.476 16.4181 104.529 16.5239 104.529 16.6561V24.6272C104.529 24.7329 104.476 24.8387 104.37 24.9444C104.291 25.0502 104.198 25.1427 104.092 25.222C104.065 25.222 104.039 25.2353 104.012 25.2617C103.906 25.341 103.813 25.4203 103.734 25.4996C103.654 25.5789 103.614 25.6715 103.614 25.7772C103.614 26.2796 103.84 26.6497 104.291 26.8876C104.742 27.0991 105.232 27.2049 105.763 27.2049C105.789 27.2049 105.803 27.2049 105.803 27.2049C105.829 27.2049 105.856 27.2049 105.882 27.2049C106.413 27.1785 106.904 27.0463 107.354 26.8083C107.805 26.5704 108.031 26.2531 108.031 25.8566ZM108.031 10.1523V4.20367C108.031 3.70135 107.792 3.33121 107.315 3.09327C106.864 2.85532 106.36 2.73635 105.803 2.73635C105.246 2.73635 104.742 2.86854 104.291 3.13293C103.84 3.37087 103.614 3.72778 103.614 4.20367C103.614 4.30943 103.654 4.40196 103.734 4.48127C103.813 4.56059 103.906 4.6399 104.012 4.71922C104.039 4.71922 104.052 4.71922 104.052 4.71922C104.052 4.71922 104.065 4.73244 104.092 4.75887C104.198 4.83819 104.291 4.9175 104.37 4.99682C104.476 5.07613 104.529 5.18189 104.529 5.31408V8.92289C104.529 9.02864 104.49 9.12117 104.41 9.20049C104.331 9.2798 104.238 9.35912 104.132 9.43843C104.132 9.43843 104.118 9.45165 104.092 9.47809C103.959 9.5574 103.84 9.64994 103.734 9.75569C103.654 9.83501 103.614 9.94076 103.614 10.073C103.614 10.5753 103.84 10.9454 104.291 11.1834C104.742 11.3949 105.232 11.5006 105.763 11.5006C105.789 11.5006 105.803 11.5006 105.803 11.5006C105.829 11.5006 105.856 11.5006 105.882 11.5006C106.413 11.4742 106.904 11.342 107.354 11.104C107.805 10.8661 108.031 10.5488 108.031 10.1523Z" fill="#FF7A00"/>
<path d="M145.34 25.222L144.584 28.5136C144.557 28.5665 144.531 28.6326 144.504 28.7119C144.504 28.8176 144.491 28.9102 144.464 28.9895C144.358 29.2803 144.186 29.5447 143.947 29.7826C143.708 30.0206 143.363 30.1395 142.913 30.1395C142.674 30.1395 142.448 30.1263 142.236 30.0999C142.024 30.0734 141.825 30.0338 141.639 29.9809C141.586 29.9545 141.533 29.928 141.48 29.9016C141.427 29.9016 141.374 29.9016 141.321 29.9016C141.056 29.8487 140.777 29.7958 140.485 29.743C140.22 29.6901 139.889 29.6636 139.491 29.6636L124.53 29.7033C124.53 29.6769 124.438 29.624 124.252 29.5447C124.093 29.4918 123.907 29.4125 123.695 29.3067C123.456 29.201 123.244 29.0688 123.058 28.9102C122.899 28.778 122.82 28.6326 122.82 28.4739C122.82 28.1831 122.979 27.9319 123.297 27.7204C123.642 27.4825 124.053 27.3635 124.53 27.3635L125.127 27.1652V2.93464L124.53 2.6967C124.504 2.6967 124.398 2.67026 124.212 2.61738C124.053 2.5645 123.881 2.48519 123.695 2.37944C123.483 2.27368 123.284 2.15471 123.098 2.02252C122.912 1.86389 122.82 1.69204 122.82 1.50698C122.82 1.18972 122.979 0.925336 123.297 0.713831C123.642 0.502325 124.053 0.396572 124.53 0.396572H137.74C137.873 0.396572 138.019 0.396572 138.178 0.396572C138.337 0.370135 138.496 0.343697 138.655 0.317259C138.735 0.290819 138.814 0.2776 138.894 0.2776C139 0.251162 139.093 0.224724 139.172 0.198286C139.332 0.171848 139.477 0.14541 139.61 0.11897C139.743 0.0925325 139.836 0.0660946 139.889 0.0396568C139.915 0.0396568 139.942 0.0396568 139.968 0.0396568C140.021 0.0132189 140.061 0 140.088 0C140.114 0 140.141 0 140.167 0C140.22 0 140.26 0 140.287 0C140.393 0 140.499 0.0132189 140.605 0.0396568C140.711 0.0396568 140.83 0.0528757 140.963 0.0793136C141.281 0.185067 141.586 0.343696 141.878 0.555202C142.196 0.766708 142.422 1.01787 142.554 1.30869L144.345 4.75887C144.398 4.83819 144.438 4.9175 144.464 4.99682C144.491 5.07613 144.491 5.15545 144.464 5.23476C144.464 5.44627 144.371 5.65777 144.186 5.86928C144.027 6.05435 143.801 6.18654 143.509 6.26585C143.456 6.29229 143.39 6.31873 143.31 6.34516C143.257 6.34516 143.204 6.34516 143.151 6.34516C143.072 6.3716 142.992 6.38482 142.913 6.38482C142.859 6.38482 142.806 6.38482 142.753 6.38482C142.409 6.38482 142.09 6.33195 141.798 6.22619C141.507 6.094 141.308 5.93537 141.202 5.75031L139.292 2.6967H136.427L136.069 3.01395V12.0558H139.133C139.106 12.0029 139.093 11.9633 139.093 11.9368C139.093 11.884 139.093 11.8443 139.093 11.8179C139.093 11.765 139.093 11.7253 139.093 11.6989C139.119 11.646 139.133 11.5931 139.133 11.5403C139.186 11.3816 139.279 11.2362 139.411 11.104C139.57 10.9454 139.729 10.8264 139.889 10.7471C139.995 10.6942 140.088 10.6678 140.167 10.6678C140.273 10.6414 140.379 10.6282 140.485 10.6282C140.538 10.6282 140.592 10.6282 140.645 10.6282C140.698 10.6282 140.751 10.6414 140.804 10.6678C141.016 10.6942 141.215 10.7471 141.401 10.8264C141.586 10.8793 141.745 10.9586 141.878 11.0644C141.984 11.1173 142.064 11.1701 142.117 11.223C142.17 11.2495 142.21 11.2891 142.236 11.342L144.862 15.506C144.889 15.5324 144.902 15.5721 144.902 15.625C144.928 15.6514 144.942 15.6778 144.942 15.7043C144.968 15.7307 144.982 15.7704 144.982 15.8233C144.982 15.8497 144.982 15.8761 144.982 15.9026C144.982 16.1141 144.889 16.3256 144.703 16.5371C144.544 16.7222 144.292 16.8676 143.947 16.9733C143.894 16.9998 143.828 17.0262 143.748 17.0526C143.695 17.0526 143.642 17.0526 143.589 17.0526C143.509 17.0791 143.43 17.0923 143.35 17.0923C143.297 17.0923 143.244 17.0923 143.191 17.0923C142.846 17.0923 142.528 17.0262 142.236 16.894C141.971 16.7618 141.772 16.6032 141.639 16.4181L140.724 15.0698C140.565 14.7525 140.287 14.5542 139.889 14.4749C139.517 14.3956 138.947 14.3559 138.178 14.3559H136.069V27.3635H139.053C139.504 27.3635 139.862 27.2842 140.127 27.1256C140.393 26.967 140.592 26.7819 140.724 26.5704C140.751 26.5439 140.764 26.5175 140.764 26.4911C140.79 26.4646 140.817 26.4382 140.844 26.4118L142.196 24.2703C142.329 24.0588 142.541 23.9001 142.833 23.7944C143.125 23.6886 143.443 23.6357 143.788 23.6357C143.92 23.6357 144.04 23.6357 144.146 23.6357C144.279 23.6357 144.398 23.6622 144.504 23.7151C144.822 23.8208 145.048 23.9794 145.18 24.1909C145.313 24.4024 145.379 24.6272 145.379 24.8651C145.379 24.918 145.379 24.9841 145.379 25.0634C145.379 25.1163 145.366 25.1692 145.34 25.222Z" fill="#FF7A00"/>
<path d="M176.256 28.4343C176.256 28.6458 176.15 28.8441 175.938 29.0291C175.725 29.2142 175.487 29.3596 175.221 29.4654C175.089 29.5182 174.969 29.5579 174.863 29.5843C174.757 29.6108 174.651 29.624 174.545 29.624C173.245 29.624 171.959 29.624 170.686 29.624C169.412 29.624 168.139 29.624 166.866 29.624C165.831 29.624 165.115 29.2274 164.717 28.4343C164.319 27.6676 164.081 26.8083 164.001 25.8566C163.975 25.5657 163.948 25.2749 163.922 24.9841C163.922 24.6933 163.922 24.4157 163.922 24.1513C163.922 23.9927 163.922 23.834 163.922 23.6754C163.922 23.5168 163.935 23.3714 163.961 23.2392C163.961 23.107 163.961 22.988 163.961 22.8823C163.961 22.7501 163.961 22.6311 163.961 22.5253C163.961 21.4149 163.603 20.7011 162.887 20.3838C162.197 20.0666 161.229 19.9212 159.983 19.9476V27.0463L160.42 27.2842C160.871 27.2842 161.269 27.4032 161.614 27.6411C161.959 27.8791 162.131 28.1302 162.131 28.3946C162.131 28.7383 161.959 29.0291 161.614 29.2671C161.269 29.505 160.871 29.624 160.42 29.624L149.717 29.6636C149.213 29.6372 148.802 29.505 148.484 29.2671C148.165 29.0291 148.006 28.7383 148.006 28.3946C148.006 28.1302 148.165 27.8791 148.484 27.6411C148.802 27.4032 149.213 27.2842 149.717 27.2842L150.036 27.0463V2.89498C149.929 2.84211 149.823 2.78923 149.717 2.73635C149.611 2.68348 149.492 2.64382 149.359 2.61738C149.333 2.59094 149.293 2.57772 149.24 2.57772C149.187 2.55129 149.134 2.53807 149.081 2.53807C148.789 2.43231 148.524 2.32656 148.285 2.22081C148.073 2.08862 147.967 1.83745 147.967 1.46732C147.967 1.15006 148.126 0.885678 148.444 0.674172C148.762 0.43623 149.16 0.317259 149.638 0.317259H164.439C167.701 0.317259 170.261 1.30869 172.118 3.29155C174.001 5.27442 175.022 7.45557 175.182 9.83501C175.208 9.9672 175.221 10.0994 175.221 10.2316C175.221 10.3373 175.221 10.4563 175.221 10.5885C175.221 12.5185 174.598 14.3031 173.351 15.9422C172.131 17.5814 170.195 18.6389 167.542 19.1148V19.3924L169.253 19.7493C169.412 19.7758 169.571 19.8154 169.731 19.8683C169.916 19.9212 170.102 19.9873 170.288 20.0666C171.189 20.3838 172.025 20.8465 172.794 21.4546C173.564 22.0362 174.014 22.6443 174.147 23.2788C174.174 23.3317 174.187 23.3846 174.187 23.4375C174.187 23.4903 174.187 23.5432 174.187 23.5961C174.187 23.649 174.174 23.7415 174.147 23.8737C174.147 24.0059 174.147 24.1645 174.147 24.3496C174.147 24.5082 174.134 24.6801 174.107 24.8651C174.107 25.0237 174.107 25.1956 174.107 25.3807C174.107 25.4071 174.107 25.4335 174.107 25.46C174.107 25.4864 174.107 25.5129 174.107 25.5393C174.107 25.9623 174.134 26.3457 174.187 26.6894C174.24 27.0331 174.359 27.2313 174.545 27.2842C174.598 27.3106 174.638 27.3371 174.664 27.3635C174.717 27.3635 174.77 27.3635 174.823 27.3635C175.195 27.4957 175.526 27.6411 175.818 27.7998C176.11 27.9584 176.256 28.1567 176.256 28.3946V28.4343ZM163.683 16.0612V4.48127C163.683 3.97895 163.444 3.60881 162.967 3.37087C162.516 3.13292 162.012 3.01395 161.455 3.01395C160.898 3.01395 160.394 3.14614 159.943 3.41053C159.492 3.64847 159.266 4.00538 159.266 4.48127C159.266 4.58703 159.306 4.67956 159.386 4.75887C159.465 4.83819 159.558 4.9175 159.664 4.99682C159.664 4.99682 159.664 5.01004 159.664 5.03647C159.691 5.03647 159.704 5.03647 159.704 5.03647C159.837 5.11579 159.943 5.20832 160.022 5.31408C160.128 5.39339 160.181 5.49914 160.181 5.63134V14.7922C160.181 14.8979 160.128 15.0037 160.022 15.1094C159.943 15.2152 159.85 15.3077 159.744 15.387C159.611 15.4663 159.492 15.5589 159.386 15.6646C159.306 15.7439 159.266 15.8497 159.266 15.9819C159.266 16.4842 159.492 16.8543 159.943 17.0923C160.394 17.3038 160.884 17.4095 161.415 17.4095C161.441 17.4095 161.455 17.4095 161.455 17.4095C161.481 17.4095 161.508 17.4095 161.534 17.4095C162.065 17.3831 162.555 17.2509 163.006 17.013C163.457 16.775 163.683 16.4578 163.683 16.0612Z" fill="#FF7A00"/>
</svg>
