<svg width="27" height="25" viewBox="0 0 27 25" fill="none" xmlns="http://www.w3.org/2000/svg">
<path fill-rule="evenodd" clip-rule="evenodd" d="M9.78039 4.98681C10.5206 3.60135 12.0078 2.63623 13.7605 2.63623C15.5133 2.63623 17.0005 3.60135 17.7407 4.98681L13.7606 4.98681H13.7605L9.78039 4.98681ZM20.1134 5.7167C20.0618 5.46781 19.9954 5.2242 19.915 4.98681C19.0597 2.45941 16.6274 0.63623 13.7605 0.63623C10.8936 0.63623 8.46141 2.45941 7.60605 4.98681C7.52571 5.2242 7.45928 5.46781 7.40771 5.7167H1.42876C1.10573 5.7167 0.867483 6.01841 0.942382 6.33263L5.24532 24.3844C5.29899 24.6096 5.50021 24.7684 5.73169 24.7684H21.7895C22.021 24.7684 22.2222 24.6096 22.2758 24.3844L26.5788 6.33263C26.6537 6.01841 26.4154 5.7167 26.0924 5.7167H20.1134ZM7.27803 6.98681H2.35395L6.19819 23.1143C6.25187 23.3394 6.45308 23.4983 6.68457 23.4983H20.8366C21.0681 23.4983 21.2693 23.3394 21.323 23.1143L25.1672 6.98681H9.27803H7.27803Z" fill="white"/>
</svg>
