<svg width="95" height="29" viewBox="0 0 95 29" fill="none" xmlns="http://www.w3.org/2000/svg">
<path d="M17.5281 21.078C17.1338 23.3178 16.0319 25.1001 14.2224 26.4247C12.413 27.7493 10.3368 28.3995 7.99384 28.3755C7.83145 28.3755 7.66907 28.3755 7.50669 28.3755C7.3675 28.3755 7.21671 28.3634 7.05433 28.3393C6.96154 28.3393 6.85715 28.3273 6.74116 28.3032C6.64837 28.3032 6.54398 28.2912 6.42799 28.2671C5.2681 28.1467 4.15461 27.9058 3.08751 27.5446C2.02041 27.1833 1.24328 26.5571 0.75613 25.666C0.709735 25.5938 0.674938 25.4613 0.65174 25.2686C0.628542 25.0519 0.616943 24.8231 0.616943 24.5823C0.616943 24.3896 0.616943 24.209 0.616943 24.0404C0.640141 23.8718 0.663339 23.7393 0.686537 23.643C0.802526 23.2336 1.15049 22.8964 1.73044 22.6315C2.33358 22.3665 2.97152 22.2341 3.64425 22.2341C3.69065 22.2341 3.73705 22.2341 3.78344 22.2341C3.85303 22.2341 3.91103 22.2341 3.95742 22.2341C4.83894 22.2822 5.52327 22.5472 6.01043 23.0288C6.49758 23.5105 6.85715 24.0283 7.08913 24.5823C7.15872 24.7508 7.21671 24.9194 7.26311 25.088C7.3095 25.2566 7.3559 25.4131 7.4023 25.5576C7.47189 25.8707 7.58788 26.0995 7.75026 26.244C7.93584 26.3645 8.14462 26.4247 8.3766 26.4247C8.46939 26.4247 8.56218 26.4126 8.65497 26.3885C8.77096 26.3645 8.87535 26.3404 8.96815 26.3163C9.36251 26.1477 9.72207 25.8587 10.0468 25.4493C10.3948 25.0398 10.5688 24.5943 10.5688 24.1126C10.5456 23.9681 10.5108 23.8356 10.4644 23.7152C10.4412 23.5707 10.4064 23.4383 10.36 23.3178C10.0584 22.5472 9.52489 21.7885 8.75937 21.0419C7.99384 20.2953 7.17032 19.5608 6.2888 18.8382C5.96403 18.5492 5.62766 18.2723 5.2797 18.0074C4.93173 17.7183 4.60696 17.4414 4.30539 17.1765C3.28469 16.3094 2.46117 15.1655 1.83483 13.7445C1.23168 12.2995 0.895317 10.8183 0.825723 9.30103C0.825723 9.22878 0.825723 9.15652 0.825723 9.08427C0.825723 8.98794 0.825723 8.90364 0.825723 8.83139C0.825723 6.61567 1.52166 4.61671 2.91352 2.8345C4.32859 1.0523 6.65997 0.161194 9.90766 0.161194C10.2788 0.161194 10.6732 0.19732 11.0907 0.269572C11.5315 0.317739 11.9723 0.402032 12.413 0.522452C13.5497 0.835542 14.5936 1.30518 15.5447 1.93136C16.4958 2.55754 16.9714 3.24393 16.9714 3.99053C16.9714 4.56854 16.6698 5.03818 16.0667 5.39944C15.4635 5.7607 14.8024 5.95337 14.0833 5.97745C14.0601 5.97745 14.0253 5.97745 13.9789 5.97745C13.9557 5.97745 13.9325 5.97745 13.9093 5.97745C13.4221 5.97745 12.9698 5.89316 12.5522 5.72457C12.1346 5.55598 11.8099 5.27902 11.5779 4.89368C11.5083 4.77326 11.4503 4.65284 11.4039 4.53242C11.3575 4.38792 11.3227 4.25545 11.2995 4.13503C11.2995 4.08687 11.2879 4.05074 11.2647 4.02666C11.2647 3.97849 11.2531 3.93032 11.2299 3.88215C11.2067 3.71357 11.1719 3.55702 11.1255 3.41252C11.0791 3.24393 11.0096 3.09943 10.9168 2.97901C10.7544 2.78634 10.534 2.64183 10.2556 2.5455C10.0004 2.44916 9.72207 2.40099 9.4205 2.40099C9.39731 2.40099 9.37411 2.40099 9.35091 2.40099C9.35091 2.40099 9.33931 2.40099 9.31611 2.40099C8.66657 2.42508 8.10983 2.65388 7.64587 3.08739C7.20511 3.49681 7.23991 3.96645 7.75026 4.49629C7.79666 4.54446 7.84305 4.59263 7.88945 4.6408C7.93584 4.68896 7.99384 4.73713 8.06343 4.7853C8.94495 5.6764 9.81486 6.53138 10.6732 7.35023C11.5315 8.145 12.3434 8.92773 13.1089 9.69841C14.4312 11.0953 15.5215 12.5283 16.3798 13.9974C17.2614 15.4424 17.7021 17.1162 17.7021 19.0189C17.7021 19.332 17.6905 19.6691 17.6673 20.0304C17.6441 20.3676 17.5977 20.7168 17.5281 21.078Z" fill="white"/>
<path d="M43.7431 26.533C43.7431 26.8221 43.5923 27.0629 43.2907 27.2556C42.9891 27.4723 42.6412 27.5807 42.2468 27.5807L32.8517 27.6168C32.411 27.5927 32.0514 27.4723 31.773 27.2556C31.4946 27.0629 31.3555 26.81 31.3555 26.4969C31.3555 26.2561 31.4946 26.0273 31.773 25.8105C32.0514 25.5938 32.411 25.4854 32.8517 25.4854L33.0257 25.2686V13.0581H28.5021V25.3048L28.8153 25.5215C29.2097 25.5215 29.5576 25.6299 29.8592 25.8467C30.1608 26.0634 30.3116 26.2922 30.3116 26.533C30.3116 26.8461 30.1608 27.099 29.8592 27.2917C29.5576 27.5084 29.2097 27.6168 28.8153 27.6168L19.4202 27.6529C18.9794 27.6289 18.6199 27.5084 18.3415 27.2917C18.0631 27.099 17.9239 26.8461 17.9239 26.533C17.9239 26.2922 18.0631 26.0634 18.3415 25.8467C18.6199 25.6299 18.9794 25.5215 19.4202 25.5215L19.6638 25.3048V3.26802L19.3854 3.05126C18.9678 3.05126 18.6083 2.95492 18.3067 2.76225C18.0283 2.56958 17.8891 2.3167 17.8891 2.00361C17.8891 1.7146 18.0283 1.47377 18.3067 1.2811C18.6083 1.06434 18.9678 0.955962 19.3854 0.955962H28.7805C29.1981 0.955962 29.546 1.06434 29.8244 1.2811C30.126 1.47377 30.2768 1.7146 30.2768 2.00361C30.2768 2.3167 30.126 2.56958 29.8244 2.76225C29.546 2.95492 29.1981 3.05126 28.7805 3.05126L28.5021 3.26802V11.2518H33.0257V3.23189L32.7473 3.05126C32.3762 3.05126 32.0398 2.95492 31.7382 2.76225C31.4366 2.56958 31.2859 2.3167 31.2859 2.00361C31.2859 1.69052 31.4366 1.43764 31.7382 1.24497C32.0398 1.0523 32.3762 0.955962 32.7473 0.955962H42.1424C42.5832 0.955962 42.9427 1.0523 43.2211 1.24497C43.4995 1.43764 43.6387 1.69052 43.6387 2.00361C43.6387 2.3167 43.4995 2.56958 43.2211 2.76225C42.9427 2.95492 42.5832 3.05126 42.1424 3.05126L41.8988 3.23189V25.2686L42.2468 25.4854C42.6412 25.4854 42.9891 25.5938 43.2907 25.8105C43.5923 26.0273 43.7431 26.2561 43.7431 26.4969V26.533Z" fill="white"/>
<path d="M69.7843 14.2503C69.7843 18.1037 68.636 21.4032 66.3394 24.1487C64.0429 26.8943 61.2707 28.2671 58.023 28.2671C54.7521 28.2671 51.9684 26.8943 49.6718 24.1487C47.3752 21.4032 46.227 18.1037 46.227 14.2503C46.227 10.3487 47.3752 7.0251 49.6718 4.27954C51.9684 1.53398 54.7521 0.161194 58.023 0.161194C61.2707 0.161194 64.0429 1.53398 66.3394 4.27954C68.636 7.0251 69.7843 10.3487 69.7843 14.2503ZM60.3544 24.51C60.3544 24.3896 60.308 24.2932 60.2152 24.221C60.1456 24.1247 60.0644 24.0404 59.9716 23.9681C59.8557 23.8959 59.7513 23.8116 59.6585 23.7152C59.5889 23.6189 59.5541 23.5226 59.5541 23.4262V4.09891C59.5541 3.64131 59.3453 3.30414 58.9277 3.08739C58.5334 2.87063 58.081 2.76225 57.5707 2.76225C57.5475 2.76225 57.5243 2.76225 57.5011 2.76225C57.5011 2.76225 57.4895 2.76225 57.4663 2.76225C57.0255 2.78634 56.608 2.90676 56.2136 3.12351C55.8424 3.34027 55.6569 3.6654 55.6569 4.09891C55.6569 4.14708 55.6685 4.20729 55.6917 4.27954C55.7149 4.32771 55.7496 4.37587 55.796 4.42404C55.8192 4.47221 55.854 4.53242 55.9004 4.60467C55.97 4.65284 56.028 4.701 56.0744 4.74917C56.1904 4.84551 56.2832 4.9298 56.3528 5.00205C56.4456 5.07431 56.492 5.11043 56.492 5.11043V24.5461C56.492 24.9315 56.6892 25.2325 57.0835 25.4493C57.4779 25.6419 57.907 25.7503 58.371 25.7744C58.3942 25.7744 58.4058 25.7744 58.4058 25.7744C58.429 25.7744 58.4522 25.7744 58.4754 25.7744C58.9625 25.7744 59.3917 25.6781 59.7629 25.4854C60.1572 25.2686 60.3544 24.9435 60.3544 24.51Z" fill="white"/>
<path d="M94.6666 9.87904C94.6666 12.3115 93.7387 14.4068 91.8829 16.1649C90.0271 17.9231 87.8001 18.8021 85.202 18.8021H81.3047V25.2686L81.6875 25.4854C82.0818 25.4854 82.4298 25.5938 82.7314 25.8105C83.033 26.0273 83.1837 26.2561 83.1837 26.4969C83.1837 26.81 83.033 27.0749 82.7314 27.2917C82.4298 27.5084 82.0818 27.6168 81.6875 27.6168L72.2924 27.6529C71.8516 27.6289 71.4921 27.5084 71.2137 27.2917C70.9585 27.0749 70.8309 26.81 70.8309 26.4969C70.8309 26.2561 70.9585 26.0273 71.2137 25.8105C71.4921 25.5938 71.8516 25.4854 72.2924 25.4854L72.6056 25.2686V3.26802L72.2576 3.05126C71.84 3.05126 71.4805 2.95492 71.1789 2.76225C70.9005 2.5455 70.7613 2.28058 70.7613 1.96749C70.7613 1.67848 70.9005 1.4256 71.1789 1.20884C71.4805 0.992087 71.84 0.88371 72.2576 0.88371H85.2367C87.8349 0.88371 90.0503 1.76277 91.8829 3.5209C93.7387 5.27902 94.6666 7.3984 94.6666 9.87904ZM84.5408 15.2618V4.67692C84.5408 4.21933 84.332 3.88215 83.9145 3.6654C83.5201 3.44864 83.0794 3.34027 82.5922 3.34027C82.105 3.34027 81.6643 3.46069 81.2699 3.70152C80.8756 3.91828 80.6784 4.24341 80.6784 4.67692C80.6784 4.77326 80.7132 4.85755 80.7828 4.9298C80.8524 5.00205 80.9336 5.07431 81.0264 5.14656C81.0495 5.14656 81.0611 5.14656 81.0611 5.14656C81.0611 5.14656 81.0727 5.1586 81.0959 5.18268C81.1887 5.25494 81.2699 5.32719 81.3395 5.39944C81.4323 5.47169 81.4787 5.56802 81.4787 5.68844V14.1058C81.4787 14.2021 81.4323 14.2984 81.3395 14.3948C81.2699 14.4911 81.1887 14.5754 81.0959 14.6476C80.98 14.7199 80.8756 14.8042 80.7828 14.9005C80.7132 14.9728 80.6784 15.0691 80.6784 15.1895C80.6784 15.6471 80.8756 15.9843 81.2699 16.2011C81.6643 16.3937 82.0934 16.4901 82.5574 16.4901C82.5806 16.4901 82.5922 16.4901 82.5922 16.4901C82.6154 16.4901 82.6386 16.4901 82.6618 16.4901C83.1258 16.466 83.5549 16.3456 83.9493 16.1288C84.3436 15.9121 84.5408 15.623 84.5408 15.2618Z" fill="white"/>
</svg>
