<svg width="55" height="54" viewBox="0 0 55 54" fill="none" xmlns="http://www.w3.org/2000/svg">
<path d="M47.4461 10.8449C44.1598 6.20537 37.7804 4.94883 33.0443 8.23515C32.561 8.62178 32.4643 9.29837 32.7543 9.78166C33.1409 10.2649 33.8175 10.3616 34.3008 10.0716C37.9737 7.4619 43.0965 8.42847 45.7063 12.1014C46.7695 13.6479 47.2528 15.3877 47.1561 17.2242C47.1561 17.8041 47.5427 18.3841 48.2193 18.3841C48.316 18.3841 48.4126 18.3841 48.606 18.3841C49.0892 18.2874 49.3792 17.9008 49.3792 17.4175C49.4759 15.0011 48.7993 12.6814 47.4461 10.8449Z" fill="#444444"/>
<path d="M46.2864 20.3176C45.7064 21.5741 44.7399 22.6374 43.6767 23.4106C43.1934 23.7972 43.0967 24.4738 43.3867 24.9571C43.6766 25.3438 44.1599 25.5371 44.5466 25.3438C44.6432 25.3438 44.7399 25.2471 44.8365 25.1504C46.2864 24.1839 47.4463 22.8307 48.2195 21.2842C48.5095 20.7042 48.3162 20.1243 47.7362 19.8343C47.2529 19.641 46.5763 19.8343 46.2864 20.3176Z" fill="#444444"/>
<path d="M54.212 12.1982C51.7956 3.69246 42.9032 -1.33368 34.3974 0.986081C29.0813 2.43593 24.9251 6.4955 23.2819 11.715L1.43758 19.7374C0.954295 19.9308 0.567669 20.5107 0.760982 21.0906L3.75733 32.0128C3.95065 32.5928 4.43393 32.8827 5.01387 32.7861L27.7281 28.3399C29.9512 30.3697 32.7543 31.7229 35.654 32.3028V32.3994L40.0035 48.2511C41.0667 52.0207 44.933 54.2438 48.7993 53.1806C52.5689 52.1174 54.792 48.2511 53.7287 44.3849L49.2826 28.4365C53.9221 24.5703 55.8552 18.1909 54.212 12.1982ZM47.3494 27.3733C46.9628 27.6633 46.8661 28.0499 46.9628 28.5332L51.6023 45.0615C52.3756 47.6712 50.8291 50.3776 48.1227 51.1508C45.5129 51.9241 42.8066 50.3776 42.0333 47.6712L40.3902 41.1952L42.7099 40.5186C43.2898 40.3253 43.6765 39.7453 43.4832 39.1654C43.2898 38.5855 42.7099 38.1988 42.13 38.3922L39.8102 39.0687L39.5202 38.1022L41.84 37.4256C42.4199 37.2323 42.8066 36.6523 42.6133 36.0724C42.4199 35.4925 41.84 35.1058 41.2601 35.2991L38.9403 35.9757L37.9737 32.4961C39.6169 32.5928 41.2601 32.3994 42.9032 31.9162C43.4832 31.7229 43.8698 31.1429 43.6765 30.563C43.4832 29.983 42.9032 29.5964 42.3233 29.7897C37.4905 31.1429 32.3677 29.7897 28.7914 26.3101C28.6947 26.2134 28.6947 26.2134 28.5981 26.1168C28.5014 26.1168 28.5014 26.0201 28.4047 26.0201C28.3081 26.0201 28.3081 26.0201 28.2114 26.0201C28.2114 26.0201 28.2114 26.0201 28.1148 26.0201C28.0181 26.0201 28.0181 26.0201 27.9215 26.0201H27.8248H27.7281L5.49715 30.3697L2.98408 21.3806L24.3452 13.4548H24.4418H24.5385L24.6351 13.3581C24.6351 13.3581 24.6351 13.3581 24.7318 13.3581L24.8285 13.2615C24.8285 13.2615 24.8285 13.2615 24.9251 13.1648L25.0218 13.0681C25.0218 13.0681 25.0218 13.0681 25.0218 12.9715C25.0218 12.9715 25.0218 12.8748 25.1184 12.7782C26.5683 8.13866 30.2412 4.36906 34.9774 3.11252C42.3233 1.08274 50.0558 5.43228 52.0856 12.7782C53.5354 18.1909 51.699 23.8937 47.3494 27.3733Z" fill="#444444"/>
<path d="M20.5757 24.3771L7.52704 26.7935C6.94711 26.8902 6.56048 27.4701 6.65714 28.0501C6.75379 28.63 7.33373 29.0166 7.91367 28.92L20.9623 26.5036H21.059C21.6389 26.3102 21.9289 25.827 21.8322 25.247C21.7356 24.6671 21.1556 24.2805 20.5757 24.3771Z" fill="#444444"/>
<path d="M43.0966 15.8713C42.42 13.5515 40.0036 12.1016 37.6838 12.7782C35.3641 13.4548 33.9142 15.8713 34.5908 18.191C35.2674 20.5108 37.6838 21.9606 40.0036 21.284C42.3233 20.6074 43.7732 18.191 43.0966 15.8713ZM39.4236 19.1576C38.2638 19.4475 37.0072 18.7709 36.6206 17.6111C36.3306 16.4512 37.0072 15.1947 38.1671 14.808C39.327 14.5181 40.5835 15.1947 40.9701 16.3545C41.3568 17.6111 40.5835 18.8676 39.4236 19.1576Z" fill="#444444"/>
</svg>
