<svg width="44" height="59" viewBox="0 0 44 59" fill="none" xmlns="http://www.w3.org/2000/svg">
<path d="M33.6656 39.6294C32.6354 39.6294 31.6051 39.8354 30.5749 40.2475L26.5569 35.5084L35.7261 11.6065L35.7261 11.5035C35.8291 11.1944 37.5806 3.57057 32.2233 0.170741C31.9142 -0.0353064 31.5021 -0.0353102 31.193 0.0677134C30.8839 0.170741 30.5749 0.479815 30.4718 0.788893L21.6117 27.5754L11.3092 1.30402C11.2061 0.994941 10.8971 0.78889 10.588 0.58284C10.2789 0.479816 9.86681 0.47982 9.66076 0.685871C7.3942 2.0252 3.99437 6.04318 7.18815 12.0186L16.7695 35.7144L12.9576 40.6596C11.9273 40.3506 10.8971 40.2475 9.86681 40.2475C4.71555 40.3506 0.594543 44.6776 0.697569 49.8289C0.800594 54.9801 5.12765 59.1011 10.2789 58.9981C15.4302 58.8951 19.5512 54.568 19.4481 49.4168C19.4481 47.5623 18.83 45.8109 17.7997 44.3685C17.3876 43.8534 16.6665 43.7504 16.1513 44.0595C15.6362 44.4716 15.5332 45.1927 15.8423 45.7079C16.6665 46.8411 17.0786 48.1805 17.0786 49.5198C17.1816 53.4348 14.0908 56.6285 10.1759 56.7316C6.26093 56.8346 3.06715 53.7438 2.96412 49.8289C2.8611 45.9139 5.95185 42.7201 9.86681 42.6171C10.8971 42.6171 11.9273 42.8232 12.8545 43.2353C13.1636 43.3383 13.4727 43.3383 13.7818 43.2353C14.0908 43.1322 14.2969 42.9262 14.3999 42.6171L18.933 36.7447C19.1391 36.4356 19.2421 36.0235 19.036 35.6114L9.24866 11.1944L9.24866 11.0914C7.29118 7.27948 8.6305 4.9099 9.76378 3.6736L20.5814 31.4904C20.7875 31.9025 21.1996 32.2116 21.7147 32.2116C22.2298 32.2116 22.6419 31.9025 22.745 31.3874L32.0172 3.2615C34.2838 5.94015 33.4596 10.3702 33.3565 10.9884L24.0843 35.4053C23.9813 35.8174 23.9813 36.2295 24.2903 36.5386L29.1325 42.205C29.2355 42.5141 29.5446 42.7201 29.7507 42.8232C30.0597 42.9262 30.3688 42.9262 30.6779 42.7201C31.6051 42.308 32.6354 41.999 33.6656 41.999C37.5806 41.8959 40.7744 44.9867 40.8774 48.9016C40.9804 52.8166 37.8896 56.0104 33.9747 56.1134C30.0597 56.2164 26.866 53.1257 26.7629 49.2107C26.7629 47.8714 27.072 46.5321 27.7932 45.2958C27.9992 44.8837 27.9992 44.3685 27.6902 43.9564L23.3631 38.7022C22.951 38.187 22.2298 38.084 21.7147 38.4961C21.1996 38.9082 21.0965 39.6294 21.5086 40.1445L25.5266 44.7806C24.8055 46.12 24.4964 47.6653 24.5994 49.2107C24.7024 54.362 29.0295 58.483 34.1807 58.38C39.332 58.2769 43.453 53.9499 43.35 48.7986C43.1439 43.5443 38.9199 39.4233 33.6656 39.6294Z" fill="#444444"/>
<path d="M10.0729 46.4289C10.691 46.4289 11.2061 45.9138 11.2061 45.1926C11.2061 44.5744 10.691 44.0593 9.96985 44.0593C6.87909 44.1623 4.40649 46.738 4.50952 49.8287C4.50952 51.4771 5.33372 53.0225 6.67304 54.0527C6.98212 54.2588 7.29119 54.3618 7.49724 54.3618C7.80632 54.3618 8.11539 54.1558 8.42447 53.9497C8.83657 53.4346 8.73354 52.7134 8.21842 52.3013C7.39422 51.6832 6.98212 50.7559 6.87909 49.8287C6.87909 47.9743 8.32144 46.4289 10.0729 46.4289Z" fill="#444444"/>
</svg>
